<svg id="Purple_Background" data-name="Purple Background" xmlns="http://www.w3.org/2000/svg" width="960" height="1074" viewBox="0 0 960 1074">
  <path id="Path_6906" data-name="Path 6906" d="M0,0H960V1074H0Z" fill="#62ccf4"/>
  <g id="Group_2870" data-name="Group 2870" transform="translate(-20 4.451)" opacity="0.75">
    <g id="Group_2868" data-name="Group 2868" transform="translate(167.464 224.588)" opacity="0.25">
      <path id="Path_6927" data-name="Path 6927" d="M171.567,265.5c.448.937.966,1.863,1.492,2.758.65,1.1,1.293,2.209,1.982,3.288.706,1.108,1.448,2.179,2.2,3.254a36.357,36.357,0,0,0,2.6,3.24,26.768,26.768,0,0,0,4.167,3.67,32.465,32.465,0,0,0,9.4,4.6,28.807,28.807,0,0,0,10.464,1.445,37.608,37.608,0,0,0,8.718-1.5c.573-.174,1.165-.319,1.727-.524l2.163-.789c1.174-.427,2.315-.957,3.46-1.462q.091.319.181.637c.546,1.933,1.028,3.881,1.494,5.834.44,1.845.755,3.705,1.054,5.577a95.8,95.8,0,0,1,.683,10.718v.121c-.014.105-.024.209-.038.313a91.323,91.323,0,0,1-1.862,9.754,62.413,62.413,0,0,1-1.819,6.083c-.808,2.242-1.589,4.492-2.463,6.707l-.451,1.138q-1.173,2.653-2.408,5.277l-.73,1.55q-.333.453-.675.9c-.82,1.022-1.638,2.047-2.465,3.063-.88,1.079-1.832,2.1-2.81,3.09a32.161,32.161,0,0,1-3.05,2.672,43.874,43.874,0,0,1-4.255,2.869c-.148.046-.294.1-.444.138a15.691,15.691,0,0,1-1.9.384,24.06,24.06,0,0,1-2.677.162c-.319,0-.637-.011-.956-.031a5.238,5.238,0,0,0,.695-2.11,3.545,3.545,0,0,0-.567-2.141c.09-.242.17-.486.242-.737a9.6,9.6,0,0,0,.284-1.823,6.757,6.757,0,0,0-.049-1.34,5.619,5.619,0,0,0-.348-1.506,6.114,6.114,0,0,0-.38-.789,6,6,0,0,0-.52-.708,7.235,7.235,0,0,0-1.063-1.064,15.878,15.878,0,0,0-5.186-2.539,20.2,20.2,0,0,0-2.662-.726,7.064,7.064,0,0,0-1.247-.12c-.12,0-.241,0-.362.012a9.067,9.067,0,0,0-1.711.3,7.372,7.372,0,0,0-1.335.52,4.15,4.15,0,0,0-.425.24,4.709,4.709,0,0,0-.781.148,3.756,3.756,0,0,0-1.754,1.213l-.229-.029a2.907,2.907,0,0,0-1.279.116,3.139,3.139,0,0,0-.311.12,5.505,5.505,0,0,0-1.186.111,2.514,2.514,0,0,0-.651.242,3.728,3.728,0,0,0-.583.39,4.338,4.338,0,0,0-1,1.162,4.958,4.958,0,0,0-.5,1.25,7.271,7.271,0,0,0-.2,1.351,7.035,7.035,0,0,0,.04,1.317,9.406,9.406,0,0,0,.31,1.588c.015.056.037.109.053.164a5.905,5.905,0,0,0-.176,1.213,6.742,6.742,0,0,0,.526,2.38,16.738,16.738,0,0,0,.96,2.177,18.571,18.571,0,0,0,1.984,2.774,27.353,27.353,0,0,0,6.632,6.118A25.272,25.272,0,0,0,186,361.925a21.046,21.046,0,0,0,9.857,1.033,18.869,18.869,0,0,0,9.349-3.531c.961-.678,1.855-1.445,2.747-2.21s1.752-1.542,2.559-2.382a30.3,30.3,0,0,0,2.718-3.136q.587-.81,1.172-1.617c.377-.521.7-1.083,1.054-1.622.578-.893,1.127-1.807,1.657-2.729a95.554,95.554,0,0,0,6.363-13.506,71.674,71.674,0,0,0,2.4-7.013,60.154,60.154,0,0,0,1.61-7.256c.208-1.485.389-2.963.528-4.457.11-1.189.149-2.388.2-3.582.1-2.367.113-4.739.031-7.108-.047-1.371-.114-2.736-.2-4.105-.074-1.178-.211-2.349-.329-3.522-.074-.74-.208-1.479-.318-2.215-.081-.548-.152-1.1-.259-1.64-.261-1.335-.54-2.657-.847-3.982-.5-2.145-1.062-4.275-1.671-6.392.674-.41,1.341-.827,2-1.268l1.548-1.036c.568-.38,1.095-.835,1.637-1.247s1.13-.826,1.651-1.281L233.2,274.6c.4-.351.772-.746,1.154-1.117s.768-.75,1.135-1.142c.935-1,1.834-2.016,2.721-3.06a63.26,63.26,0,0,0,4.83-6.607,40.149,40.149,0,0,0,2.114-3.776,27.564,27.564,0,0,0,1.771-4.324c.188-.616.4-1.23.55-1.854.141-.591.313-1.18.426-1.777q.19-1.026.382-2.052c.179-.965.264-1.972.392-2.947.077-.582.117-1.16.158-1.746a51.657,51.657,0,0,0-.134-7.467,37.948,37.948,0,0,0-.744-5.005,29.311,29.311,0,0,0-1.993-5.736,23.688,23.688,0,0,0-3.154-4.932c-.494-.639-1.012-1.248-1.566-1.835a20.038,20.038,0,0,0-2.116-1.861,22.864,22.864,0,0,0-4.695-3.117c-.984-.448-1.963-.911-2.971-1.3-1.109-.429-2.217-.862-3.35-1.227-1.162-.374-2.325-.769-3.506-1.078-.566-.148-1.134-.333-1.708-.442-1.341-.257-2.665-.459-4.024-.633a20.375,20.375,0,0,0-4.814.006,32.838,32.838,0,0,0-3.49.546,18.505,18.505,0,0,0-2.739.886,31.5,31.5,0,0,0-5.474,2.715,51.5,51.5,0,0,0-4.8,3.528l-.818-1.674c.1.082.2.165.3.245l-.03-.023.04.031.156.12-.074-.057.172.132a.964.964,0,0,0,1.451-.832.917.917,0,0,0-.282-.682,19.344,19.344,0,0,1-1.809-1.621c-.852-.859-1.719-1.706-2.507-2.623q-1.505-3.132-2.951-6.292l.658-1.13c.258-.443.484-.9.718-1.357q.734-1.419,1.467-2.84c.528-1.02,1.035-2.053,1.546-3.083q.485-.977.971-1.954a.49.49,0,0,0,.042.093.518.518,0,0,0,.708.186.562.562,0,0,0,.238-.31c.317-.835.645-1.668.961-2.5.15-.394.3-.786.437-1.184q.221-.651.444-1.3.356-1.048.714-2.1l.036-.071c.048-.095.09-.185.132-.28l-.049.117q.634-1.493,1.26-2.99c.17-.392.335-.786.5-1.181l.01-.026c.091-.163.181-.326.272-.489q.378-.669.755-1.34c-.075.427-.151.852-.241,1.276a24.8,24.8,0,0,1-1.078,4.088,1.022,1.022,0,0,0,1.258,1.258.985.985,0,0,0,.612-.469c.206-.442.381-.888.547-1.345.1-.287.184-.583.272-.877.183-.611.33-1.229.486-1.848.136-.537.245-1.08.36-1.622.2-.916.377-1.828.535-2.751.149-.871.273-1.748.357-2.627q.033-.348.057-.7c.269-.476.536-.953.805-1.429q.31-.55.629-1.1a.662.662,0,0,0-.235-.9.628.628,0,0,0-.323-.088.676.676,0,0,0-.572.322c-.074.123-.145.247-.22.37v-.072c.529-1.068,1.059-2.135,1.6-3.2a.518.518,0,0,0-.183-.7.509.509,0,0,0-.258-.069.494.494,0,0,0-.441.251c-.191.36-.377.723-.564,1.086l.043-.166c.09-.353.146-.717.218-1.073.282-1.39.569-2.781.82-4.178a1.416,1.416,0,0,0,.392.777,1.443,1.443,0,0,0,2.463-1.021c-.07-1.134-.149-2.261-.268-3.392-.137-1.317-.3-2.633-.549-3.935a29.258,29.258,0,0,0-2.307-6.985c-.144-.306-.3-.608-.456-.907-.091-.288-.191-.576-.3-.861.006-.236.015-.471.019-.706a.572.572,0,0,0-.545-.567,23.535,23.535,0,0,0-2.169-3.776,22.282,22.282,0,0,0-3.945-4.188,31.577,31.577,0,0,0-3.757-2.766,16.375,16.375,0,0,0-4.189-1.866,15,15,0,0,0-3.961-.472c-.222,0-.443,0-.663.01a11.685,11.685,0,0,0-2.343.316,8.618,8.618,0,0,0-1.878.759,11.808,11.808,0,0,0-1.845,1.271,16.665,16.665,0,0,0-2.134,2.07,23.724,23.724,0,0,0-3.816,6.375,31.506,31.506,0,0,0-1.245,3.207,29.307,29.307,0,0,0-.941,3.507,32.758,32.758,0,0,0-.483,3.58,37.493,37.493,0,0,0,.114,7.442c.081.629.168,1.255.259,1.88-.33,1.4-.614,2.806-.841,4.224-.212,1.328-.374,2.663-.465,4-.09,1.321-.111,2.644-.1,3.966s.056,2.636.166,3.949a25.4,25.4,0,0,0,.616,3.969,16.987,16.987,0,0,0,1.368,3.7c.347.675.717,1.34,1.08,2.008.282.515.564,1.027.865,1.532.132.222.262.445.406.661.1.155.207.309.309.464.124.185.267.358.406.532.319,1.163.667,2.317,1.056,3.458.45,1.319.963,2.615,1.505,3.9.533,1.265,1.108,2.516,1.744,3.733.6,1.136,1.253,2.24,1.92,3.335-1.686,2.732-3.36,5.471-4.956,8.258a119.9,119.9,0,0,0-6.69,13.054q-.431,1.025-.835,2.065l-.013,0a.881.881,0,0,0-.449.122.838.838,0,0,0-.406.529c-.1.71-.226,1.416-.338,2.125q-.093.6-.161,1.194c-.061.2-.121.409-.179.614q-.3,1.069-.6,2.136a31.345,31.345,0,0,0-.835,4.479,38.3,38.3,0,0,0-.261,4.335,43.794,43.794,0,0,0,1.73,13.636A47.355,47.355,0,0,0,171.567,265.5Zm1.244-32.466c.052-.174.111-.345.165-.517l.742-1.306c-.058.158-.12.313-.177.471q-.616,1.693-1.146,3.414c-.356,1.152-.671,2.317-.973,3.483-.065.25-.125.5-.188.754A62.8,62.8,0,0,1,172.811,233.031Zm31.756-82.516c.036.183.076.365.106.55.044.391.074.782.094,1.174a.6.6,0,0,0-.164-.023.619.619,0,0,0-.532.306.682.682,0,0,0-.062.473c.105.759.23,1.514.336,2.273.074.565.126,1.131.171,1.7-.192-.592-.4-1.179-.625-1.76-.188-.492-.389-.979-.591-1.466a36.871,36.871,0,0,0-.692-3.968c-.162-.7-.344-1.4-.531-2.089-.1-.372-.2-.744-.311-1.112-.07-.229-.149-.455-.226-.681.146.186.294.372.44.558.594.78,1.156,1.576,1.671,2.411C203.981,149.4,204.283,149.951,204.567,150.515Zm16.263,71.763-.054-.023.067.006Zm3.656,1.689a13.33,13.33,0,0,1,2.528,1.571c.487.379.968.766,1.436,1.167.331.285.648.585.96.89q-.494-.424-1.005-.829a32.713,32.713,0,0,0-4.3-2.907L224,223.8C224.164,223.85,224.326,223.9,224.486,223.967Zm7.7,2.617a.962.962,0,0,0-.267.185.979.979,0,0,0-.149.2q-.456-.479-.93-.938c-.368-.355-.754-.687-1.146-1.013a22.046,22.046,0,0,1,2.463,1.54Zm-21.036-3.746a1.089,1.089,0,0,0,.258.188q-.521.159-1.042.325c-.2.064-.4.132-.6.2q.67-.371,1.36-.7Zm-39.353,26.82c.517,1.7,1.071,3.392,1.651,5.073q-.034.25-.066.5c-.494-1.081-.978-2.167-1.44-3.261-.346-1.3-.637-2.623-.864-3.952.022-.185.043-.371.066-.556Q171.461,248.561,171.793,249.658Zm18.9-111.487a5.759,5.759,0,0,1,.688-.014c.142.027.283.063.423.1a.853.853,0,0,0-.03.212.924.924,0,0,0,.251.61c.511.634,1.033,1.26,1.537,1.9q.5.646,1,1.291a12.843,12.843,0,0,0-1.266-.868c-.113-.067-.229-.129-.346-.192a.9.9,0,0,0-.644-.865c-.538-.16-1.081-.316-1.626-.456a5.2,5.2,0,0,0-.94-.143c-.053,0-.106,0-.159,0a6.451,6.451,0,0,0-.782.069,8.932,8.932,0,0,0-1.554.335c.37-.335.756-.657,1.146-.968a7.374,7.374,0,0,1,1.143-.688A7.63,7.63,0,0,1,190.695,138.17Zm3.171,4.66a17.143,17.143,0,0,1,1.658,1.48,18.8,18.8,0,0,1,1.437,1.664q.3.4.6.8c1.3,3.158,2.536,6.35,3.569,9.608.162.51.314,1.023.464,1.537.021.649.035,1.3.034,1.949a52.945,52.945,0,0,1-.466,6.815l.015-.106-.015.109-.022.166.019-.147c-.217,1.571-.477,3.138-.8,4.693-.334,1.6-.742,3.195-1.186,4.773q-.194.691-.4,1.378-.557,1.463-1.16,2.908l0-.01-.011.026-.044.1.018-.044c-.941,2.216-1.967,4.393-3.006,6.565q-.736,1.369-1.487,2.732-2.2,3.982-4.518,7.908c-.318-.78-.643-1.557-.966-2.335a.8.8,0,0,0,.132-.964c-.848-1.414-1.588-2.9-2.333-4.364-.344-.679-.715-1.35-1.02-2.047q-.328-.754-.658-1.506-1.262-3.11-2.473-6.237-.439-1.262-.848-2.532c-.071-.22-.141-.44-.21-.659.1.154.2.309.3.461.437.65.89,1.289,1.342,1.929.284.4.553.813.851,1.2s.575.753.864,1.128a14.542,14.542,0,0,0,1.186,1.355.975.975,0,1,0,1.379-1.379c-.205-.211-.407-.419-.6-.644-.145-.171-.289-.343-.435-.514l.027.035c-.251-.322-.507-.641-.746-.972l-1.016-1.424c-.579-.812-1.163-1.621-1.7-2.462-.36-.57-.689-1.162-1.012-1.755s-.616-1.193-.884-1.809a29.422,29.422,0,0,1-1.424-4.549q-.1-1.683-.073-3.372a52.464,52.464,0,0,1,.462-6.227c.3-2.146.688-4.285,1.185-6.394q.359-1.517.826-3,.584-.9,1.233-1.754c.559-.712,1.151-1.4,1.756-2.072a16.928,16.928,0,0,1,2.023-1.938,8.216,8.216,0,0,1,1.535-.924,7.946,7.946,0,0,1,1.676-.449,4.882,4.882,0,0,1,.959-.033c.3.055.585.135.876.219.353.1.707.2,1.06.3a.857.857,0,0,0,.684-.1A11.415,11.415,0,0,1,193.866,142.83ZM187.7,209.4c-.012-.012-.029-.018-.043-.029.045-.063.093-.126.138-.19l.393.661c.027.075.053.149.078.225.131.372.3.732.447,1.1q.25.608.5,1.217c-.447-.633-.885-1.273-1.327-1.908-.093-.133-.183-.267-.274-.4L187.7,210A.425.425,0,0,0,187.7,209.4Zm3.107,8.025a1.079,1.079,0,0,0,.44-.1l.129.313c.138.338.278.675.416,1.015.07.169.135.342.213.507q.513,1.087,1.025,2.172l-.228.247q-.713-1.451-1.425-2.9c-.207-.421-.416-.841-.621-1.263C190.772,217.424,190.789,217.429,190.805,217.429Zm-9.587-27.486c.565,1.426,1.163,2.839,1.75,4.257q.246.856.493,1.71c.089.312.179.622.268.933a2.609,2.609,0,0,0,.028.583,4.437,4.437,0,0,0,.128.6c-.672-1.7-1.285-3.423-1.889-5.147-.744-2.121-1.461-4.251-2.112-6.4Q180.534,188.214,181.218,189.943Zm-2.865,45.3h0Zm0,.018-.008.058,0,.034Zm-2.118,15.175a25.651,25.651,0,0,0,.453,2.656,26.255,26.255,0,0,0,.691,2.543c.174.531.349,1.061.53,1.59.414,1.217.813,2.442,1.319,3.624l.234.544c.1.226.213.444.325.663a.648.648,0,0,0,1.184-.155.682.682,0,0,0-.065-.5c-.088-.177-.178-.354-.261-.532q-.145-.351-.292-.7c-.1-.233-.178-.475-.266-.713-.187-.509-.365-1.02-.538-1.533q-.425-1.271-.846-2.542a27.549,27.549,0,0,1-1.121-4.789,32.569,32.569,0,0,1-.1-5.116c.03-.893.091-1.786.158-2.678.051-.651.1-1.3.16-1.957q.213-2.137.428-4.273c.044-.452.082-.906.136-1.357l0,.027v0q.177-1.265.348-2.53c.062-.283.125-.565.187-.847q.536-2.461,1.071-4.924c.066-.3.153-.6.234-.894q.362-1.349.727-2.7.3-1.109.6-2.216c.038-.144.078-.287.116-.431s.1-.269.141-.4q.505-1.43,1.009-2.858a.562.562,0,0,0,.515-.412c.2-.9.456-1.8.722-2.685l.168-.4.972-1.462.04-.057c.268-.31.545-.612.835-.9.365.55.739,1.095,1.114,1.64l1.425,3.453c.207.5.4,1.006.633,1.493l2.334,4.93c-.622.755-1.218,1.53-1.773,2.322-.341.486-.705.966-1.009,1.477-.336.57-.716,1.136-1,1.731-.748,1.546-1.415,3.112-2.013,4.724a30.6,30.6,0,0,0-.95,3.509c-.14.586-.229,1.188-.339,1.779a29.462,29.462,0,0,0-.507,5.108,22.387,22.387,0,0,0,.538,4.688c.124.6.246,1.207.393,1.8a32.746,32.746,0,0,0,.982,3.472,22.017,22.017,0,0,0,3.073,6.06,12.9,12.9,0,0,0,3.18,2.9,5,5,0,0,0,1.815.695,3.824,3.824,0,0,0,1.445-.168,0,0,0,0,0,0-.007c-.322-.074-.635-.161-.95-.259a2.008,2.008,0,0,1-.491-.283,7.792,7.792,0,0,1-.716-.727c-.031-.042-.058-.086-.088-.128a.858.858,0,0,0-.091-.55c-.283-.519-.556-1.048-.793-1.591a17.531,17.531,0,0,1-.951-3.99,30.525,30.525,0,0,1-.246-3.25c.064-1.447.215-2.893.392-4.328.048-.294.1-.585.163-.875a20.981,20.981,0,0,1,.822-2.358,40.691,40.691,0,0,1,2.695-5.083c.986-1.611,2.03-3.2,3.172-4.7l3.538,5.508c1,1.557,2.072,3.067,3.122,4.591.119.175.247.341.374.508l1.015,1.344c.7,1.785,1.4,3.571,2.122,5.35.915,2.271,1.885,4.517,2.816,6.782,1.824,4.436,3.518,8.925,5.143,13.438q.842,2.338,1.613,4.7l-.17.1c-.145.069-.288.138-.435.2a17.175,17.175,0,0,1-3.922,1.005c-.765.095-1.532.161-2.3.225-.824.069-1.65.124-2.476.147a30.154,30.154,0,0,1-4.689-.3,34.358,34.358,0,0,1-4.226-.85,32.441,32.441,0,0,1-3.965-1.394c-1.623-.691-3.211-1.46-4.8-2.221-.831-.4-1.655-.8-2.467-1.233s-1.613-.881-2.426-1.311a1.085,1.085,0,0,0-.507-.128.969.969,0,0,0-.776.387c-.18-.13-.36-.26-.536-.393q-.385-.367-.763-.742-.985-.985-1.9-2.037-.652-1.06-1.243-2.157c-.9-1.662-1.7-3.372-2.437-5.109-.42-1-.821-2.016-1.212-3.032-.086-.284-.174-.566-.258-.851a42.525,42.525,0,0,1-1.3-5.869c.24-1.5.473-3.01.707-4.516.088-.564.187-1.126.288-1.689-.044.783-.078,1.567-.091,2.35A20.254,20.254,0,0,0,176.233,250.44Zm25.737,30.353h0Zm-9.518-3.788c.31.145.619.292.93.435q.768.351,1.548.681a21.536,21.536,0,0,1-2.2-.757c-.086-.037-.17-.079-.256-.119A1.082,1.082,0,0,0,192.451,277.006Zm3.392,4.283c-.771-.5-1.533-1.016-2.3-1.524q-1.224-.813-2.436-1.647a1.077,1.077,0,0,0,.547.067q.5.245,1.012.461a23.3,23.3,0,0,0,2.383.822,28.068,28.068,0,0,0,2.9.682c.556.1,1.115.2,1.675.289.761.116,1.521.241,2.284.346l.03,0h0l-.035,0,.105.015-.022,0,.047.006.074.011-.054-.007,1.672.224c.964.128,1.932.226,2.9.279a.636.636,0,0,0,.6-.4c.769.035,1.541.021,2.311-.019a29.1,29.1,0,0,1-4.442.928,26.134,26.134,0,0,1-6.045.125Q197.435,281.689,195.843,281.288Zm4.6-136.511a1,1,0,0,0-.263.036,1.034,1.034,0,0,0-.61.49c-.095-.219-.188-.438-.286-.654-.427-.954-.9-1.888-1.362-2.826.521.482,1.021.987,1.5,1.521.427.478.841.968,1.248,1.464A.971.971,0,0,0,200.446,144.778Zm-4.673-4.383a1.233,1.233,0,0,0-.3.254l-.2-.262.068.089c-.3-.385-.6-.765-.9-1.144a17.767,17.767,0,0,1,1.587.956A1.2,1.2,0,0,0,195.773,140.395Zm-19.515,88.451c.454-1.062.932-2.114,1.425-3.158.277-.588.549-1.181.849-1.758q.7-1.348,1.407-2.7l.021-.04q-.167.551-.323,1.107c-.236.845-.455,1.693-.646,2.551s-.36,1.734-.52,2.6c-.12.652-.236,1.3-.342,1.958q-.177.789-.352,1.579l-.566,2.531c-.062.28-.127.557-.184.838-.549,2.715-1.113,5.428-1.624,8.15q-.269,1.43-.536,2.858c-.034.177-.068.353-.1.53q-.025-.949-.022-1.9a57.971,57.971,0,0,1,.519-7.417c.057-.422.118-.841.207-1.258s.2-.842.3-1.265a.627.627,0,0,0-.432-.759.6.6,0,0,0-.156-.02.613.613,0,0,0-.6.452c-.114.507-.25,1.008-.354,1.517-.12.582-.182,1.18-.258,1.768-.148,1.137-.259,2.276-.339,3.419a60.886,60.886,0,0,0-.085,6.837c.028.692.074,1.382.129,2.073q-.554-1.8-1.079-3.614c-.254-.877-.507-1.754-.734-2.638.384-1.861.852-3.7,1.354-5.538.4-1.482.877-2.945,1.386-4.4s1.062-2.9,1.662-4.323Zm4.966,43.2c-.456-.6-.906-1.2-1.346-1.807.359.355.723.706,1.1,1.046.024.023.05.044.074.065a28.044,28.044,0,0,0,2.488,3.065q.374.4.763.788c.015.056.031.111.051.166s.048.12.075.18A33.1,33.1,0,0,1,181.223,272.05Zm52.523-14.079c-.852,2-1.772,3.963-2.7,5.927-.427.9-.852,1.8-1.286,2.7-.257.532-.515,1.066-.786,1.591-.13.149-.259.3-.389.448l-1.246,1.413c-.431.489-.882.958-1.336,1.425l-1.876,1.592-1.573,1.176q-.189-.587-.379-1.171c-1.445-4.437-3.122-8.811-4.9-13.127-1.567-3.812-3.241-7.577-4.872-11.362-.987-2.367-1.964-4.738-3.024-7.075-.938-2.071-2.021-4.074-3.058-6.1q-1.487-2.9-2.884-5.846c.3-.258.612-.511.927-.757.79-.6,1.6-1.176,2.433-1.723a16.774,16.774,0,0,1,2.564-1.382c.861-.347,1.755-.612,2.636-.9a17.576,17.576,0,0,1,1.965-.507.939.939,0,0,0,.653-1.15.889.889,0,0,0-.039-.1,14.485,14.485,0,0,1,1.566.067,17.484,17.484,0,0,1,3.78,1.141,31.316,31.316,0,0,1,3.424,1.711,30.477,30.477,0,0,1,3.14,2.122,26.038,26.038,0,0,1,4.32,4.226,23.4,23.4,0,0,1,2.8,4.812,42.677,42.677,0,0,1,1.475,4.261c.25.859.491,1.719.733,2.581a32.659,32.659,0,0,1,.847,3.6.7.7,0,0,0,.057.179,37.574,37.574,0,0,1-1.052,4.827A49.646,49.646,0,0,1,233.747,257.971ZM180.377,142.6c-.246.43-.463.874-.668,1.325q.135-.618.278-1.234a12.626,12.626,0,0,1,.9-.94l.016-.015Q180.629,142.166,180.377,142.6Zm13.441,210.235c.074.006.149.011.223.015q-.341.143-.682.284c.041-.094.083-.187.122-.281.007-.017.012-.034.019-.051C193.607,352.817,193.712,352.831,193.818,352.839Zm11.631-3.07c.079-.051.157-.1.236-.155l-.336.38q-.5.555-1.017,1.085a27.89,27.89,0,0,1-3.9,2.086c-.689.284-1.392.544-2.107.768a43.2,43.2,0,0,0,4.478-2.441c.609-.384,1.205-.789,1.793-1.205C204.884,350.121,205.169,349.948,205.449,349.769Zm-11.441,8.115c-.157-.053-.31-.111-.465-.166.5.066,1,.114,1.5.137a14.841,14.841,0,0,0,3.052-.172c.265-.042.527-.1.788-.162a21.175,21.175,0,0,1-3.393.807C194.987,358.2,194.494,358.047,194.008,357.884Zm-3.275.479a19.75,19.75,0,0,1-2.3-.521c.189-.067.377-.136.563-.214.019-.006.039-.006.058-.012.323-.112.648-.221.974-.33q1.332.647,2.71,1.193A19.7,19.7,0,0,1,190.734,358.363Zm19.827-10.827a1.437,1.437,0,0,0-.2-.222q.856-1.167,1.63-2.389c.088-.141.17-.285.255-.427a1.123,1.123,0,0,0,.142.055c.027.007.053.008.08.013-.251.407-.5.814-.754,1.221C211.345,346.383,210.958,346.963,210.56,347.536Zm7.339-13.688q.128-.51.232-1.026.507-1.283,1.011-2.568c.3-.777.616-1.549.892-2.337q.421-1.209.843-2.418c-.043.144-.085.288-.128.432C219.96,328.625,218.927,331.24,217.9,333.848Zm16.652-72.776c-.028.047-.058.091-.087.138l.044-.092c.418-.885.8-1.787,1.182-2.689.58-1.372,1.092-2.765,1.548-4.181a.953.953,0,0,0,.486-.286c.105-.12.207-.242.306-.366a22.973,22.973,0,0,1-.777,2.206A43.7,43.7,0,0,1,234.551,261.072ZM182.686,137a11.567,11.567,0,0,1,1.974-1.2,9.152,9.152,0,0,1,1.572-.435,15.054,15.054,0,0,1,2.265-.056,7.536,7.536,0,0,0-1.29.63c-.09.056-.178.118-.267.179a.69.69,0,0,0-.292-.373.655.655,0,0,0-.334-.091.667.667,0,0,0-.174.023.71.71,0,0,0-.393.3c-.309.431-.633.85-.946,1.277-.286.388-.54.794-.786,1.206-.289.275-.57.561-.838.858a.594.594,0,0,0-.1-.01.632.632,0,0,0-.457.188c-.116.121-.234.24-.349.362a.664.664,0,0,0-.108-.15.65.65,0,0,0-.456-.189.687.687,0,0,0-.455.189c-.171.138-.343.274-.51.418.043-.132.086-.264.128-.4a.683.683,0,0,0-.272-.745A19.441,19.441,0,0,1,182.686,137Zm-7.548,14.935a22.929,22.929,0,0,1,.6-3.091c.162-.551.3-1.122.493-1.664q.331-.909.665-1.816a34.84,34.84,0,0,1,2.03-4.118c-.108.362-.2.728-.286,1.1a12.124,12.124,0,0,0-1.2,2.482,35.1,35.1,0,0,0-1.577,6.316c-.213,1.16-.41,2.321-.564,3.492-.067.507-.122,1.016-.174,1.524-.069.191-.136.383-.2.574,0-.06-.006-.12-.006-.18A43.78,43.78,0,0,1,175.138,151.932Zm-1.476,29.31a47.582,47.582,0,0,1-.3-5.935,46.7,46.7,0,0,1,.366-6.1c.047-.341.106-.68.16-1.021.085.332.171.663.257.994.028.107.059.212.087.319.031.2.057.4.089.6q.17,1.1.366,2.2a68.308,68.308,0,0,0-.015,7.149,63.154,63.154,0,0,0,.953,7.968c-.271-.527-.54-1.056-.778-1.6A19.341,19.341,0,0,1,173.662,181.242Zm6.945,16.693a59.03,59.03,0,0,1-4-14.717c-.158-1.188-.277-2.379-.367-3.574q.43,1.79.89,3.57.269,1.042.546,2.08c.14.524.266,1.054.422,1.572q.33,1.1.655,2.2,1.155,3.876,2.307,7.754c.11.375.218.748.35,1.115q.538,1.489,1.075,2.98l1.011,2.805A51.562,51.562,0,0,1,180.607,197.935Zm3.236,12.87-.616,1.049c-.413.7-.816,1.412-1.226,2.12q-1.309,2.265-2.618,4.534c.669-1.21,1.351-2.413,2.032-3.615C182.2,213.515,183.014,212.157,183.843,210.806Z" transform="translate(-40.153 -170.956)" fill="#fff"/>
      <path id="Path_6928" data-name="Path 6928" d="M460.862,130.464q.432-1.041.862-2.082c.357.914.771,1.808,1.211,2.684.254.506.512,1.007.778,1.506.217.408.437.821.683,1.213l.453.721c.27.43.565.841.875,1.244a9.767,9.767,0,0,0,1.4,1.489,8.184,8.184,0,0,0,1.974,1.245,12.721,12.721,0,0,0,2.128.733c.443.109.9.175,1.346.249.537.089,1.076.175,1.618.237.144.017.288.03.432.045a8.7,8.7,0,0,0,.734.6,6.3,6.3,0,0,0,.9.492.963.963,0,0,0,.714.094.927.927,0,0,0,.648-1.142.98.98,0,0,0-.078-.192,1.819,1.819,0,0,0,.4-.256,1.4,1.4,0,0,0,.439-.709,1.5,1.5,0,0,0-.178-1.057,5.4,5.4,0,0,0-.582-.824,9.574,9.574,0,0,0-.96-.97c-.355-.332-.722-.655-1.065-1-.3-.3-.591-.613-.876-.929a15.048,15.048,0,0,1-.581-2.664q-.121-.767-.241-1.534c-.075-.475-.184-.947-.276-1.418-.083-.427-.212-.845-.324-1.265a14.326,14.326,0,0,0-.973-2.645,5.19,5.19,0,0,0-.392-.643c-.11-.159-.234-.309-.355-.458a2.494,2.494,0,0,0-.429-.377,2.884,2.884,0,0,0-.785-.427,3.66,3.66,0,0,0-1.01-.185c-.1-.007-.2-.011-.3-.011a10,10,0,0,0-1.7.2l-.034.007a4.005,4.005,0,0,0-.669-.072h-.074a9.961,9.961,0,0,0-1.284.138l-1.179.16q.408-.959.817-1.916c.036-.085.072-.169.107-.253a1.049,1.049,0,0,0,0-.561,1.056,1.056,0,0,0-1.021-.776,1.041,1.041,0,0,0-.279.037,1.012,1.012,0,0,0-.632.486q-.865,2.028-1.716,4.06a.914.914,0,0,0-.348.369q-.1.216-.184.438c-.007.045-.014.091-.02.136a2.492,2.492,0,0,0-.048.448c0,.012,0,.023,0,.035q-.525,1.256-1.047,2.513-.827,1.99-1.654,3.98c-.2.492-.414.982-.612,1.478l-2.756,6.894c-.589,1.473-1.185,2.943-1.749,4.426l-2.8,7.35c-.213.56-.392,1.132-.583,1.7q-.7,2.088-1.4,4.178c-.2.612-.417,1.216-.585,1.839q-.546,2.023-1.1,4.046l-.288,1.068c-.105.387-.182.785-.272,1.177-.241,1.041-.491,2.082-.721,3.126q-.317,1.438-.635,2.876c-.137-.8-.288-1.587-.466-2.374-.109-.482-.2-.969-.338-1.445q-.138-.49-.277-.98c-.049-.177-.09-.359-.153-.531q-.306-.841-.612-1.684c-.065-.178-.148-.352-.225-.525l-.454-1.018a21.022,21.022,0,0,0-1.332-2.539,20.422,20.422,0,0,0-2.694-3.41,15.077,15.077,0,0,0-3.373-2.672,7.787,7.787,0,0,0-3.764-1.1c-.161,0-.322.007-.483.021a5.857,5.857,0,0,0-1.011.178,4.463,4.463,0,0,0-.928.4,4.028,4.028,0,0,0-1.524,1.65,7.661,7.661,0,0,0-.693,1.916,10.2,10.2,0,0,0-.277,2.379,11.722,11.722,0,0,0,.234,2.18,15.749,15.749,0,0,0,.6,2.188,23.594,23.594,0,0,0,1.87,4,25.174,25.174,0,0,0,1.8,2.716,24.49,24.49,0,0,0,2.278,2.639,23.183,23.183,0,0,0,2.615,2.2,17.48,17.48,0,0,0,3.012,1.742c1.1.511,2.248.92,3.388,1.328.755.27,1.517.523,2.3.717a1.6,1.6,0,0,0,1.8-2.347c-.014-.023-.029-.047-.044-.07.015-.041.028-.081.041-.122a1.016,1.016,0,0,0,.044-.308c.086-.391.158-.788.235-1.18q.139-.711.279-1.422.276-1.411.568-2.82c.433-2.1.9-4.2,1.362-6.3.074-.337.176-.669.264-1q.28-1.063.561-2.127.258-.971.514-1.943c.054-.207.1-.418.169-.622l2.23-6.733c.191-.574.423-1.137.636-1.7l1.575-4.166c.558-1.476,1.114-2.949,1.7-4.414l3.112-7.815C459.684,133.288,460.276,131.878,460.862,130.464Zm15.7,8.12h0a.45.45,0,0,1,.007.051C476.565,138.618,476.563,138.6,476.56,138.584Zm-6.127-12.935c.064.16.124.322.182.484-.115-.251-.232-.5-.358-.745-.114-.223-.23-.445-.349-.665l.024.024A5.7,5.7,0,0,1,470.433,125.649Zm-26.868,50.757h0l0-.013Z" transform="translate(-54.17 -160.299)" fill="#fff"/>
      <path id="Path_6929" data-name="Path 6929" d="M63,415.383q-.674-.888-1.35-1.774c.959.15,1.929.242,2.9.3.558.035,1.115.064,1.674.085.457.019.919.036,1.377.021l.841-.028c.5-.016,1-.063,1.5-.128a9.573,9.573,0,0,0,1.972-.458,8.064,8.064,0,0,0,2.048-1.067,12.508,12.508,0,0,0,1.686-1.453c.314-.325.6-.679.883-1.027.344-.414.687-.833,1.01-1.264.086-.116.169-.232.254-.347a8.675,8.675,0,0,0,.879-.327,6.289,6.289,0,0,0,.867-.522.955.955,0,0,0,.436-.564.919.919,0,0,0-.653-1.123.973.973,0,0,0-.2-.028,1.788,1.788,0,0,0-.019-.469,1.384,1.384,0,0,0-.388-.728,1.483,1.483,0,0,0-.992-.374,5.324,5.324,0,0,0-.993.086,9.383,9.383,0,0,0-1.307.337c-.461.139-.919.292-1.385.412-.409.106-.818.2-1.23.286a14.839,14.839,0,0,1-2.566-.831l-1.432-.558c-.443-.173-.9-.314-1.348-.471-.407-.141-.827-.239-1.243-.352a14.139,14.139,0,0,0-2.746-.486,5.105,5.105,0,0,0-.745.015c-.191.015-.381.045-.569.075a2.5,2.5,0,0,0-.536.179,2.849,2.849,0,0,0-.756.458,3.64,3.64,0,0,0-.661.772c-.057.082-.111.167-.161.254a9.887,9.887,0,0,0-.671,1.553l-.011.032a3.875,3.875,0,0,0-.394.536c-.013.021-.026.041-.038.063a9.788,9.788,0,0,0-.522,1.166q-.227.543-.451,1.088l-1.23-1.653-.163-.217a1.044,1.044,0,0,0-.48-.28,1.045,1.045,0,0,0-1.172.486,1.021,1.021,0,0,0-.107.257,1,1,0,0,0,.1.782q1.3,1.749,2.615,3.49a.9.9,0,0,0,.142.482q.136.191.282.376l.107.085a2.355,2.355,0,0,0,.36.264l.032.015q.811,1.075,1.626,2.147l2.577,3.4c.319.42.633.843.958,1.26q2.259,2.9,4.519,5.79c.965,1.238,1.925,2.48,2.911,3.7l4.888,6.053c.372.461.772.9,1.163,1.345q1.435,1.64,2.871,3.28c.421.48.832.962,1.281,1.416l2.913,2.951.769.779c.279.283.581.547.87.819.771.725,1.535,1.457,2.313,2.174q1.071.986,2.141,1.975c-.747-.279-1.5-.544-2.261-.784-.466-.147-.93-.309-1.4-.431l-.975-.251c-.176-.046-.351-.1-.531-.134l-1.744-.316c-.184-.033-.374-.048-.561-.069l-1.1-.12a20.887,20.887,0,0,0-2.834-.127,20.227,20.227,0,0,0-4.255.6,14.918,14.918,0,0,0-3.965,1.552,7.719,7.719,0,0,0-2.815,2.669c-.08.138-.154.279-.223.423a5.862,5.862,0,0,0-.351.953,4.4,4.4,0,0,0-.122.991,3.983,3.983,0,0,0,.652,2.125,7.546,7.546,0,0,0,1.293,1.546,10.105,10.105,0,0,0,1.9,1.423,11.581,11.581,0,0,0,1.979.886,15.566,15.566,0,0,0,2.168.579,23.326,23.326,0,0,0,4.352.4,24.858,24.858,0,0,0,3.216-.182,24.254,24.254,0,0,0,3.39-.632,22.933,22.933,0,0,0,3.182-1.139,17.312,17.312,0,0,0,2.989-1.706c.983-.683,1.906-1.463,2.822-2.233.607-.511,1.2-1.037,1.756-1.6a1.581,1.581,0,0,0-1.108-2.711l-.081,0c-.027-.032-.056-.064-.085-.1a.975.975,0,0,0-.241-.191c-.292-.269-.595-.528-.892-.789l-1.076-.946q-1.068-.939-2.126-1.891c-1.582-1.418-3.141-2.859-4.7-4.3-.25-.23-.483-.483-.723-.724l-1.538-1.54-1.4-1.407c-.15-.15-.307-.295-.447-.455l-4.644-5.26c-.4-.449-.761-.928-1.138-1.393l-2.776-3.421c-.983-1.212-1.966-2.421-2.927-3.65q-2.564-3.277-5.129-6.553C64.829,417.8,63.918,416.588,63,415.383Zm14.76-9.371h0a.463.463,0,0,1,.046.019ZM63.655,404.8c.169.025.336.054.5.086-.271-.027-.543-.051-.815-.065-.248-.014-.5-.025-.743-.032l.033-.009A5.6,5.6,0,0,1,63.655,404.8Zm29.994,48.248h0l-.01-.009Z" transform="translate(30.04 -90.111)" fill="#fff"/>
      <path id="Path_6930" data-name="Path 6930" d="M377.392,88.169a.486.486,0,0,0,.3-.118c.043.087.084.176.124.266.305.747.531,1.524.774,2.293q.286.91.574,1.819c.256.814.511,1.63.772,2.442q1.018,3.165,2.034,6.331c.566,1.76,1.111,3.527,1.659,5.3.3.972.6,1.943.916,2.909q.513,1.549,1.05,3.087c.213.6.432,1.208.65,1.811l.02.053c.183.878.36,1.756.547,2.635a1.374,1.374,0,0,0,1.582.978,1.661,1.661,0,0,0,.551-.011.907.907,0,0,0,1.11.626l.021-.006a1.321,1.321,0,0,0,.392.181,1.3,1.3,0,0,0,1.024-.133c.388-.264.763-.545,1.132-.832a1.685,1.685,0,0,0,1.221-.229c.3-.23.6-.456.877-.711.178-.162.335-.343.5-.521.238-.258.445-.574.66-.855.124-.165.233-.33.34-.5.139-.223.271-.449.4-.676.107-.1.217-.205.323-.309.562-.55,1.116-1.1,1.646-1.681.485-.535.942-1.091,1.384-1.661a22.1,22.1,0,0,0,1.39-1.979,8.167,8.167,0,0,0,1.479-4.281,3.617,3.617,0,0,0-.2-1.059,3.205,3.205,0,0,0-.548-1,10.526,10.526,0,0,0-1.6-1.617,5.454,5.454,0,0,0-2.9-1.3,5.464,5.464,0,0,0-.752-1.111,2.581,2.581,0,0,0-.547-.477,3.733,3.733,0,0,0-.649-.309,2.515,2.515,0,0,0-.761-.107c-.036,0-.072,0-.108,0a2.43,2.43,0,0,0-.974.247,8.277,8.277,0,0,0-1.266.725,9.59,9.59,0,0,0-1.216.957,6.718,6.718,0,0,0-.94,1.2,5.3,5.3,0,0,0-.491,1.028,8,8,0,0,0-2.046,2.409,9.732,9.732,0,0,0-.654,1.475c-.042-.11-.083-.22-.125-.329q-.379-.976-.755-1.952l-.094-.245c-1.2-4.482-2.481-8.946-3.749-13.412-.264-.93-.5-1.869-.757-2.8-.3-1.114-.6-2.227-.848-3.354q-.1-.478-.2-.954a.834.834,0,0,0-1.637.222c0,.191.007.381.018.571a6.092,6.092,0,0,0,.093.626c.056.347.124.692.2,1.037a.689.689,0,0,0-.437.823c.071.276.14.551.209.827l0,0a.485.485,0,0,0-.387-.217.337.337,0,0,0-.2.064,1.257,1.257,0,0,0-.3.258.587.587,0,0,0-.107.3c-.073-.1-.145-.2-.214-.3a.476.476,0,0,0-.4-.23.463.463,0,0,0-.447.34c-.031.153-.066.3-.1.456a1.862,1.862,0,0,0-.02.532A.468.468,0,0,0,377.392,88.169Zm21.935,15.824a5.6,5.6,0,0,1,.125.556c.009.094.009.187.013.28C399.432,104.548,399.385,104.269,399.327,103.993Zm-4.652-.967c.077-.091.155-.181.233-.271.048.052.1.1.149.152a7.12,7.12,0,0,1,.456.772,8.842,8.842,0,0,1-.383,1.258,25.12,25.12,0,0,1-2.808,4.363q-.982,1.241-1.983,2.465.023-.294.057-.589a12.556,12.556,0,0,1,.8-2.865,20.682,20.682,0,0,1,2.533-4.141C394.029,103.78,394.357,103.406,394.675,103.026Zm-2.383-.73a8.587,8.587,0,0,1,1.042-.333c-.633.733-1.238,1.491-1.8,2.276.18-.629.378-1.257.612-1.866C392.194,102.348,392.241,102.319,392.292,102.3ZM379.217,88.433c.288.549.54,1.12.784,1.691l-.011-.027.021.051.031.072-.018-.041q.166.4.324.8l.943,3.3c.6,2.1,1.3,4.167,1.966,6.243l.023.069c.036.149.076.3.111.449l.228.977c-.523-1.508-1.058-3.012-1.579-4.52q-1.092-3.168-2.164-6.342c-.121-.36-.243-.718-.364-1.078-.08-.24-.164-.48-.248-.72-.08-.421-.161-.843-.236-1.265Q379.125,88.257,379.217,88.433Z" transform="translate(-89.882 -62.245)" fill="#fff"/>
      <path id="Path_6931" data-name="Path 6931" d="M380.742,92.127l-.01-.023.023.054Z" transform="translate(-67.763 -2.916)" fill="#fff"/>
      <path id="Path_6932" data-name="Path 6932" d="M564.989,448.259c.016-.147.016-.3.025-.448,0-.1.012-.2.015-.3.013-.6.023-1.2.024-1.8,0-.986,0-1.972-.015-2.959a1.634,1.634,0,0,0,.066-.358c.048-.567.1-1.136.108-1.706s0-1.164-.017-1.748c-.025-.784-.083-1.569-.151-2.353.035-.37.062-.74.086-1.111.044-.694.05-1.393.065-2.088.032-1.381.013-2.762,0-4.143-.013-1.269-.054-2.538-.1-3.807q-.073-2.143-.153-4.288c-.093-2.534-.164-5.07-.182-7.606q-.028-3.969-.022-7.935.011-4.532,0-9.062c0-1.239-.014-2.478-.022-3.716-.007-1.111-.013-2.22-.031-3.331q-.043-2.516-.084-5.031c-.007-.373-.027-.747-.04-1.12q-.056-1.437-.111-2.874-.069-1.785-.156-3.569l.019-.143a1.051,1.051,0,0,0-.039-.285l0-.054a.737.737,0,0,0-.726-.726.7.7,0,0,0-.137.015,1.035,1.035,0,0,0-.156-.013,1.066,1.066,0,0,0-.539.146,1.175,1.175,0,0,0-.272.223c-.112.028-.222.063-.332.1-.248.083-.495.172-.742.258q-.854.3-1.711.589c-.6.2-1.189.416-1.768.67-.545.238-1.065.521-1.589.8-2.041,1.107-4.034,2.3-6.055,3.443-3.941,2.228-8,4.23-12.019,6.322q-3.4,1.775-6.8,3.571c-1.905,1.006-3.8,2.033-5.7,3.046q-2.233,1.188-4.464,2.377a1.488,1.488,0,0,0-.185-.131,1.456,1.456,0,0,0-.724-.192,1.251,1.251,0,0,0-.683.192,1.908,1.908,0,0,0-.643.61,2.165,2.165,0,0,0-.24.681c-.011.056-.019.113-.03.169l-.63.334a1,1,0,0,0-.357,1.36.969.969,0,0,0,.8.482c-.035.638-.055,1.277-.07,1.915a1.315,1.315,0,0,0,.616,1.121c0,.19,0,.381,0,.571,0,1.5-.033,3.008-.038,4.512q-.007,1.716-.014,3.432c0,.755-.02,1.511-.01,2.266q.043,3.038.082,6.078.014,1.017.027,2.035c.007.6.037,1.2.056,1.8q.109,3.534.22,7.067c.044,1.389.116,2.776.18,4.164.076,1.66.143,3.322.229,4.981-.022.094-.043.188-.066.283a.6.6,0,0,0-.072.287c-.076.315-.153.631-.236.945a.476.476,0,0,0,.319.575q.01.189.021.377c-.115,1.409-.224,2.818-.317,4.228-.078,1.179-.134,2.365-.126,3.548q-.236-.312-.47-.625c-.333-.448-.711-.863-1.072-1.288l-1.564-1.836c-.727-.853-1.5-1.666-2.257-2.493-.308-.338-.646-.65-.972-.971-.493-.484-.977-.978-1.489-1.442a32.476,32.476,0,0,0-3.941-3.078,25.715,25.715,0,0,0-4.564-2.312,14.79,14.79,0,0,0-4.845-1.2c-.067,0-.134,0-.2,0a7.6,7.6,0,0,0-1.2.114,6.724,6.724,0,0,0-1.077.262,7.782,7.782,0,0,0-1.195.525,7.055,7.055,0,0,0-1.206.868,5.42,5.42,0,0,0-.9,1.02,5.342,5.342,0,0,0-.511.879,6.556,6.556,0,0,0-.45,1.279,8.3,8.3,0,0,0-.189,1.6,8.44,8.44,0,0,0,.117,1.423,9.586,9.586,0,0,0,.221,1.118,10.38,10.38,0,0,0,1.046,2.49,13.511,13.511,0,0,0,1.46,2.018,12.628,12.628,0,0,0,2.029,1.848,22.556,22.556,0,0,0,4.253,2.463,34.68,34.68,0,0,0,6.343,2.233c.955.232,1.907.467,2.869.666a25.851,25.851,0,0,0,5.893.756,14.848,14.848,0,0,0,1.553-.1,9.867,9.867,0,0,0,1.181-.177,4.9,4.9,0,0,0,1.372-.563,2.21,2.21,0,0,0,.717-.713,1.347,1.347,0,0,0,.5-.175,1.386,1.386,0,0,0,.495-1.886c-.033-.051-.068-.1-.1-.152l.007-.055a.7.7,0,0,0,.489-.664c-.026-.725-.061-1.45-.1-2.175q.133-.889.271-1.778c.1-.64.2-1.281.291-1.923q.073-.55.146-1.1.038-.285.077-.571l0-.024v0l.011-.083.01-.073,0-.018c0,.027-.007.053-.011.08,0-.027.007-.053.011-.08l0-.017c.08-.638.129-1.283.193-1.924.062-.625.094-1.253.139-1.878.079-1.093.142-2.186.215-3.279.084-1.248.166-2.5.267-3.742q.162-1.979.344-3.952c.045-.489.085-.977.141-1.464q.137-1.211.272-2.423c.14-1.247.311-2.488.472-3.732.036-.282.072-.564.109-.846-.007.049-.014.1-.02.147q.235-1.747.464-3.494l.011-.078,0,.013,0-.022c.044-.339.077-.68.115-1.019q.109-.976.218-1.95c.055-.493.106-.987.158-1.48.019-.184.039-.369.057-.553l2.283-1.3q2.239-1.276,4.48-2.548c1.82-1.029,3.633-2.073,5.462-3.088q2.45-1.359,4.9-2.719c3.583-2,7.156-4.018,10.753-5.995.726-.4,1.47-.769,2.205-1.151s1.5-.741,2.26-1.1c.795-.379,1.59-.758,2.382-1.144l.081-.04q-.041.852-.077,1.7c-.023.529-.035,1.057-.048,1.585a13.6,13.6,0,0,0,.027,1.536,1.12,1.12,0,0,0,.31.747,1.043,1.043,0,0,0,.328.222c0,.083,0,.166.006.248.022,1.033.079,2.064.144,3.1q-.013,2.057-.029,4.113c-.013,1.847,0,3.7,0,5.543,0,1.668.015,3.337.029,5.005.028,3.57.053,7.141.033,10.711-.009,1.884-.034,3.768-.025,5.651q.008,1.766.017,3.533c.005.9.058,1.807.09,2.709.013.374.034.745.059,1.118q.022.335.043.672c-.545-.774-1.091-1.547-1.654-2.308-.754-1.02-1.52-2.029-2.291-3.036-.716-.934-1.469-1.838-2.21-2.752a23.571,23.571,0,0,0-3.133-3.234,16.708,16.708,0,0,0-4.328-2.593,9.094,9.094,0,0,0-2.414-.583,4.274,4.274,0,0,0-.512-.029c-.2,0-.407.012-.609.027a8.885,8.885,0,0,0-1.471.241,7.374,7.374,0,0,0-1.026.359,10.392,10.392,0,0,0-1.193.576,9.676,9.676,0,0,0-2.1,1.7,10.449,10.449,0,0,0-.832,1.02,3.886,3.886,0,0,0-.625,1.124,5.051,5.051,0,0,0-.222,1.29,4.055,4.055,0,0,0,.071.771,5.5,5.5,0,0,0,.165.771,8.423,8.423,0,0,0,1.039,2.191,18.629,18.629,0,0,0,1.595,2.1,31.337,31.337,0,0,0,7.522,6.4,26.622,26.622,0,0,0,6.146,2.672,33.737,33.737,0,0,0,4.58.952c.85.128,1.7.24,2.558.339.388.045.774.081,1.162.112a5.812,5.812,0,0,0,1.217-.07,1.865,1.865,0,0,0,1.546-.813.562.562,0,0,0,.273-.075.628.628,0,0,0,.261-.34A3.659,3.659,0,0,0,564.989,448.259Zm-47.677,4.488-.074-.1.075.1Zm5.016-36.621c.014.011.026.024.041.034l.009.225a.315.315,0,0,0-.055.006Zm1.482-1.741c-.048.424-.095.848-.147,1.271q-.118.954-.236,1.907c0-.046,0-.092-.006-.138-.021-.519-.055-1.038-.083-1.556-.017-.322-.036-.644-.053-.965,0-.055,0-.109,0-.164l.174-.118C523.573,414.542,523.692,414.464,523.81,414.385Zm37.3,32.144c-.1-.159-.2-.314-.294-.467.1.155.2.311.3.467Z" transform="translate(79.713 -205.934)" fill="#fff"/>
      <path id="Path_6933" data-name="Path 6933" d="M550.485,507.305l-.009.065h0Z" transform="translate(-100.365 -82.66)" fill="#fff"/>
      <path id="Path_6934" data-name="Path 6934" d="M555.44,456.6l-.01.071,0,.015C555.433,456.653,555.436,456.624,555.44,456.6Z" transform="translate(-101.316 -72.921)" fill="#fff"/>
      <path id="Path_6935" data-name="Path 6935" d="M572.3,261.457a8.1,8.1,0,0,0,1.366,2.536c.238.315.485.619.749.908a8.7,8.7,0,0,0,2.52,3.047,17.084,17.084,0,0,0,2.247,1.528A11.821,11.821,0,0,0,580.3,270c.535.227,1.073.444,1.621.64a15.535,15.535,0,0,0,5.763.852c.382-.014.764-.049,1.148-.078.27-.019.543-.033.813-.068.738-.091,1.493-.149,2.226-.288l1.206-.228c.242-.046.489-.082.726-.143q.563-.147,1.128-.29c.285-.074.581-.133.863-.223l2.134-.678c.637-.2,1.263-.451,1.892-.677,1.188-.427,2.352-.919,3.522-1.394.769-.312,1.514-.694,2.266-1.047.225-.106.449-.212.675-.318.289-.135.566-.312.846-.465.541-.3,1.082-.591,1.608-.917.835-.518,1.666-1.029,2.47-1.6a22.7,22.7,0,0,0,3.711-3.227l.8-.884a14.274,14.274,0,0,0,1.534-2.05,14.04,14.04,0,0,0,1.218-2.5,6.75,6.75,0,0,0,.322-1.53c.017-.137.032-.272.045-.408a7.188,7.188,0,0,0,.178-5.117,11.69,11.69,0,0,0-1.247-2.274,8.748,8.748,0,0,0-1.883-1.908,13.373,13.373,0,0,0-4.826-2.219,17,17,0,0,0-3.371-.462h0c-.591-.155-1.189-.272-1.789-.391-.624-.124-1.247-.258-1.871-.377a20.01,20.01,0,0,0-3.705-.486c-.1,0-.195,0-.292,0a9.944,9.944,0,0,0-2.538.482l-1.129.339c-1.226.368-2.43.815-3.622,1.281-1.386.542-2.758,1.125-4.122,1.722-1.117.489-2.22,1.013-3.3,1.576-.78.4-1.563.8-2.328,1.237a26.909,26.909,0,0,0-4.725,3.417c-.632.57-1.226,1.181-1.8,1.8-.687.737-1.311,1.523-1.925,2.32a11.6,11.6,0,0,0-2.412,5.041,6.751,6.751,0,0,0-.1,1.459A6.668,6.668,0,0,0,572.3,261.457Zm12.533,2.118c.015-.094.03-.188.044-.285.034.053.069.106.106.158,0,.069.011.138.02.208Zm21.128-1.85a2.243,2.243,0,0,0,.281.267l-.5.273Q605.855,262,605.961,261.724Zm4.725-2.458c0-.038.011-.076.016-.113.075-.187.14-.382.2-.569h.064a4.173,4.173,0,0,0,.736-.075C611.371,258.766,611.031,259.02,610.686,259.266Zm-17.862-12.613c.941-.479,1.888-.936,2.859-1.354q.89-.364,1.8-.675c.891,1.048,1.787,2.091,2.7,3.118.654.736,1.3,1.481,1.96,2.211.354.391.708.781,1.075,1.163.339.355.707.685,1.029,1.056a2.706,2.706,0,0,1,.179.3,5.3,5.3,0,0,1,.19.818,21.712,21.712,0,0,1-.014,4.683,15.629,15.629,0,0,1-.653,2.692c-.124.368-.27.727-.412,1.088a18.525,18.525,0,0,1-1.078,2.089l-.007.015-.572.263-2.309.908c-.73.287-1.483.515-2.227.763-.129.043-.26.09-.39.136a18.888,18.888,0,0,1-1.607-1.527,16.733,16.733,0,0,1-.916-1.555c-.309-.591-.6-1.187-.869-1.8a21.767,21.767,0,0,1-.843-2.451c-.072-.266-.136-.534-.2-.8.018-.91.015-1.82,0-2.732-.006-.566-.044-1.139-.085-1.706-.032-.41-.06-.822-.1-1.232-.043-.457-.109-.911-.185-1.363a3.039,3.039,0,0,0-.114-.443q.135-1.705.27-3.41C592.484,246.822,592.655,246.738,592.824,246.654Z" transform="translate(-99.501 -63.177)" fill="#fff"/>
      <path id="Path_6936" data-name="Path 6936" d="M138.9,632.982v0Z" transform="translate(-21.317 -106.798)" fill="#fff"/>
      <path id="Path_6937" data-name="Path 6937" d="M201.229,606.783c.125.047.248.1.37.15-.1-.164-.2-.329-.294-.495C201.281,606.554,201.255,606.668,201.229,606.783Z" transform="translate(-33.288 -101.7)" fill="#fff"/>
      <path id="Path_6938" data-name="Path 6938" d="M471.169,606.081a5.925,5.925,0,0,0-1.242-2.866,4.38,4.38,0,0,0-1.382-1.137,5.148,5.148,0,0,0-1.814-.458,1.461,1.461,0,0,0-.161-.008,4.78,4.78,0,0,0-.808.1c-.242.044-.479.094-.717.158-.345.091-.682.235-1.018.357-.919.335-1.832.685-2.722,1.091-.038.018-.074.036-.112.053q-.376.155-.746.314c-.648.278-1.285.584-1.912.906l-1.615.826c-.295.151-.6.289-.885.456q-1.349.779-2.7,1.561a43.733,43.733,0,0,0-5.212,3.657,28.133,28.133,0,0,0-4.573,4.423c-.076.1-.15.192-.224.289a1.653,1.653,0,0,0-.245-.019c-.017,0-.032,0-.049,0,0-.112-.009-.226-.015-.339a.658.658,0,0,0-.267-.552.7.7,0,0,0-.889,0,.658.658,0,0,0-.267.552c0,.053,0,.1-.006.157a1.751,1.751,0,0,0-1.251,1.68q.079,2.4.171,4.8a21.25,21.25,0,0,0-.513,5.862,17.318,17.318,0,0,0,.463,3.224,8.38,8.38,0,0,0,.456,1.255c.125,2.777.29,5.552.387,8.33q.051,1.482.1,2.965.073,7.241.175,14.482c.026,1.915.026,3.83.032,5.746q-.018.5-.037,1c-.06,1.571-.086,3.141-.124,4.713q-.059,2.419-.086,4.837c-.01.884-.022,1.768-.031,2.653-.011.928.006,1.857.01,2.785.006,1.214.026,2.427.046,3.641a34.7,34.7,0,0,0,.284,4.246.961.961,0,0,0,.072.171c-.057.835-.106,1.67-.156,2.506a1.677,1.677,0,0,0,.428,1.16c.025.882.049,1.765.078,2.647a1.4,1.4,0,0,0,2.8,0c-.027-.879-.071-1.758-.121-2.636.99-1.026,1.024-2.624,1.159-3.964.052-.519.084-1.04.113-1.561a2.337,2.337,0,0,0,.613-1.8c.01-.291,0-.578-.015-.867-.018-.381-.034-.761-.054-1.143q-.074-1.277-.145-2.556c-.067-1.184-.129-2.368-.193-3.552q-.012-.763-.036-1.528c-.059-1.815-.119-3.628-.205-5.441-.169-3.5-.367-6.993-.474-10.491q-.176-5.715-.346-11.428c-.057-1.922-.17-3.843-.255-5.765-.061-1.365-.132-2.73-.2-4.095a2.306,2.306,0,0,0,.435-.069,6.278,6.278,0,0,0,2.186-.97c.368-.216.738-.431,1.1-.654q1.216-.743,2.427-1.492c1.45-.9,2.9-1.8,4.293-2.787,1.063-.751,2.118-1.495,3.146-2.294a40.808,40.808,0,0,0,5.415-5.03,32.789,32.789,0,0,0,4.342-6.19,30.876,30.876,0,0,0,1.571-3.441c.13-.328.253-.66.372-.995a15.741,15.741,0,0,0,.889-1.92,9.1,9.1,0,0,0,.571-3.261,13.518,13.518,0,0,0-.2-1.765A4.331,4.331,0,0,0,471.169,606.081ZM445.02,623.564a17.868,17.868,0,0,1,.881-2.659,24.177,24.177,0,0,1,2.817-4.863,26.393,26.393,0,0,1,4.388-4.241,31.03,31.03,0,0,1,3.21-2.192q.965-.557,1.929-1.116c.6-.347,1.239-.634,1.857-.949.5-.251,1.012-.466,1.521-.692.587-.235,1.176-.465,1.772-.678.089.028.179.053.267.085a6.946,6.946,0,0,1,1.155.687,6.734,6.734,0,0,1,.942.941,7.4,7.4,0,0,1,.721,1.226,7.233,7.233,0,0,1,.4,1.428c.012.11.017.22.024.33-.24.814-.521,1.617-.831,2.405-.293.431-.595.858-.893,1.287-.436.628-.915,1.23-1.381,1.836l-1.767,2.131c-.588.709-1.226,1.381-1.839,2.068-.573.644-1.179,1.259-1.773,1.882a37.49,37.49,0,0,1-3.821,3.527,20.248,20.248,0,0,1-3.774,2.27,11.8,11.8,0,0,1-2.178.645,6.742,6.742,0,0,1-1.006.02,5.692,5.692,0,0,1-.606-.162,4.745,4.745,0,0,1-.524-.306c-.048-.044-.093-.09-.137-.137a9.561,9.561,0,0,1-.843-1.449,14.965,14.965,0,0,1-.55-1.765Zm22.22-17.17a6.031,6.031,0,0,0-.793-.78h.01c.1.023.193.049.288.08.18.094.354.2.524.307.016.015.031.031.047.045.067.218.124.437.169.66C467.4,606.6,467.325,606.5,467.24,606.393Zm-22.259,25.39a6.467,6.467,0,0,0,.781.388l-.717.376C445.025,632.293,445,632.037,444.981,631.783Z" transform="translate(-15.725 -53.738)" fill="#fff"/>
      <path id="Path_6939" data-name="Path 6939" d="M359.974,354.428a1.168,1.168,0,0,0-.606-.722,2.6,2.6,0,0,0,.1-.249.986.986,0,0,0,.033-.338.915.915,0,0,0-.109-.364.851.851,0,0,0-.26-.269.62.62,0,0,0-.166-.086c.052-.025.1-.052.157-.076a1.226,1.226,0,0,0,.583-.758,1.269,1.269,0,0,0-.886-1.56l-.337-.046a1.259,1.259,0,0,0-.64.173,17.956,17.956,0,0,0-2.51,1.409c-.811.521-1.624,1.039-2.421,1.579l-1.754,1.188c-.269.182-.543.357-.806.547l-2.483,1.786c-1.335.961-2.681,1.908-3.992,2.9l-3.177,2.413c-.041-.085-.083-.17-.124-.256l-1.583-3.368c-.36-.767-.734-1.529-1.081-2.3l-.11-.244q.265-.231.528-.463l1.527-1.353c.364-.322.718-.656,1.067-1a8.433,8.433,0,0,0,.742-.818,5.577,5.577,0,0,0,.364-.515c.123-.2.229-.408.348-.609a.863.863,0,0,0,.116-.454l.251-.17c.185-.126.372-.25.558-.374l.287-.179.881-.554c.267-.168.522-.352.777-.537l.133-.078.915-.535c.29-.168.579-.342.862-.521.3-.194.592-.409.885-.618a.806.806,0,0,0,.288-.288.806.806,0,0,0,0-.81.774.774,0,0,0-.48-.369h-.006c.013-.022.027-.044.039-.068a.7.7,0,0,0,.033-.066.689.689,0,0,0,.414-.085.657.657,0,0,0,.3-.73,3.322,3.322,0,0,0-.14-.419.509.509,0,0,0,.255-.137.5.5,0,0,0,0-.707q-.176-.152-.354-.3a1.4,1.4,0,0,0-.186-.133l-.01,0c.065-.038.128-.076.2-.111a1.829,1.829,0,0,0,.987-.785,1.767,1.767,0,0,0-.634-2.417l-.422-.178a1.772,1.772,0,0,0-.939,0,4.747,4.747,0,0,0-1.861.875c-.207.138-.408.284-.611.428q-.589.417-1.176.836c-.815.583-1.627,1.171-2.445,1.75-1.476,1.045-2.943,2.1-4.428,3.135l-2.489,1.731q-.863-1.908-1.728-3.814c-.266-.587-.549-1.167-.829-1.748l-.054-.171c-.67-2.093-1.324-4.19-1.98-6.287a.9.9,0,0,0-.851-.646.88.88,0,0,0-.847,1.114l.143.458a.516.516,0,0,0-.305.5c.041.5.146.987.222,1.479.049.313.093.628.138.943.108.737.211,1.476.316,2.214a.5.5,0,0,0,.611.347.5.5,0,0,0,.3-.228.543.543,0,0,0,.05-.383q-.08-.571-.16-1.142,1.4,4.438,2.812,8.871-2.327,1.617-4.653,3.234l-6.077,4.229q-.683-1.152-1.408-2.28a47.84,47.84,0,0,0-3.962-5.357.349.349,0,0,0,.143-.083.358.358,0,0,0,0-.5l-.646-.806c-.084-.115-.159-.238-.252-.344a1.015,1.015,0,0,0-.2-.186,2.113,2.113,0,0,0-.276-.142h0a.989.989,0,0,0-.473-.3.925.925,0,0,0-.25-.034.94.94,0,0,0-.177.019c-.331-.361-.666-.72-1.011-1.068-.075-.075-.15-.15-.224-.227a.706.706,0,0,0-.5-.205.708.708,0,0,0-.5,1.211c.56.569,1.094,1.16,1.629,1.752.6,1.255,1.19,2.513,1.81,3.757l1.586,3.179.721,1.8.814,2.026-2.494,1.735q-2.409,1.677-4.812,3.361a1.113,1.113,0,0,0-.629-.473,1.084,1.084,0,0,0-1.225,1.592l.769,1.168a1.733,1.733,0,0,0,.53.805q.431.655.863,1.31c.415.632.819,1.277,1.28,1.877l-.132.109a1.113,1.113,0,0,0-.339.819,1.158,1.158,0,0,0,1.158,1.158l.308-.042a1.161,1.161,0,0,0,.511-.3c1.321-1.08,2.629-2.177,3.971-3.231l2.524-1.982.788-.619c.408.93.837,1.85,1.258,2.775.52,1.143,1.038,2.286,1.578,3.42q.4.837.8,1.674l-.636.527-.934.773c-1.137.941-2.214,1.956-3.318,2.935a1.123,1.123,0,0,0-.346.969l-.078-.12a1.193,1.193,0,0,0-.691-.531,1.143,1.143,0,0,0-.306-.041,1.156,1.156,0,0,0-1,1.74c.607.944,1.211,1.89,1.839,2.822.6.892,1.2,1.78,1.869,2.626a1.148,1.148,0,0,0,1.917-.506,1.286,1.286,0,0,0,.034-.468c1.043-.956,2.084-1.915,3.145-2.85l1.533-1.349a.539.539,0,0,0,.05.04l.647,1.467c.13.727.239,1.458.359,2.187.222,1.687.433,3.375.71,5.054a.94.94,0,0,0,.9.688.9.9,0,0,0,.3-.051q.061.591.121,1.182c.069.67.119,1.336.16,2.009.049.79.084,1.578.111,2.37.025.723.011,1.45.057,2.172a1.9,1.9,0,0,0,.532,1.284,1.815,1.815,0,0,0,2.567,0,1.764,1.764,0,0,0,.531-1.284,18.03,18.03,0,0,0-.251-1.832q-.137-.781-.275-1.56c-.159-.9-.3-1.8-.453-2.7l-.551-3.282c-.053-.313-.132-.623-.2-.934l-.451-2.1q-.086-.4-.172-.8c-.022-.106-.039-.218-.069-.322l-.348-1.192-.606-2.073c-.1-.347-.188-.7-.305-1.044l-.457-1.322c1.216-1.213,2.443-2.417,3.656-3.633q.327-.328.655-.654c.176-.144.352-.287.526-.432l3.256-2.7c.468-.388.939-.773,1.41-1.158l.318.623c.4.774.843,1.524,1.269,2.282.341.608.678,1.22,1.031,1.821q.653,1.113,1.306,2.225.7,1.189,1.376,2.387c.418.74.83,1.48,1.29,2.195a1.05,1.05,0,0,0,.611.469,1.025,1.025,0,0,0,.468.016l0,.009c.131.265.253.536.4.795l.274.493a4.363,4.363,0,0,0,.451.607,2.548,2.548,0,0,0,.613.49,1.88,1.88,0,0,0,2.278-2.952h0c-.119-.18-.23-.368-.346-.548-.131-.2-.265-.4-.4-.6-.291-.436-.577-.875-.864-1.313q-.774-1.181-1.511-2.391-.837-1.376-1.671-2.755c-.543-.895-1.058-1.809-1.586-2.713-.425-.727-.824-1.467-1.226-2.205l-.859-1.57q1.629-1.339,3.243-2.695a.9.9,0,0,0,.172-1.045L348,363.3l1.154-.783c.442-.3.88-.608,1.327-.9l1.988-1.3q1.862-1.214,3.729-2.421l1.5-.971.893-.581c.116-.075.229-.152.344-.229a5.428,5.428,0,0,0,.746-.543,1.152,1.152,0,0,0,.3-1.126C359.977,354.441,359.976,354.434,359.974,354.428Zm-12.782-10.843h-.03l.03-.021C347.192,343.572,347.191,343.578,347.192,343.585Zm10.459,9.783h0l.007-.018h0ZM337.5,364.386l-2.691,2.043c-.339.258-.682.511-1.011.783l-5.36,4.438-.139.115-.145-.377c-.269-.7-.536-1.39-.828-2.076q-.793-1.861-1.584-3.723l-.436-1.024c-.108-.254-.242-.5-.365-.748l1.735-1.363.265-.208,5.387-3.944q.756-.553,1.52-1.095a.526.526,0,0,0,.046-.027q.327-.211.651-.427l.04.118a.68.68,0,0,0,.049.556.646.646,0,0,0,.211.216q.344,1.022.687,2.046c.073.216.179.426.267.635q.365.868.731,1.736l.977,2.32Zm19.2-10.63-.013.013a.54.54,0,0,0-.335.163l-.042.047c-.006.006-.01.014-.016.021-.02-.009-.04-.02-.061-.027l.44-.276A.439.439,0,0,0,356.7,353.755Zm-42.893,13.063c.05.164.11.325.163.488l-.063.09a.484.484,0,0,0,0,.491.5.5,0,0,0,.549.223,1.114,1.114,0,0,0,.606-.3,1.04,1.04,0,0,0,.224-.424c0-.017.006-.034.009-.05.417-.284.864-.523,1.278-.813l.718-.5,2.362-1.652c.189-.132.374-.268.561-.4l.174.409-1.226.848c-1.519,1.051-3.069,2.055-4.609,3.073a.975.975,0,0,0-.43.558.933.933,0,0,0-.03.214c-.3-.445-.622-.88-.92-1.325-.073-.109-.144-.218-.216-.326Zm7.312,14.267a.839.839,0,0,0,.146.091.866.866,0,0,0-.217.513l-.243-.369Zm.526,1.511a.9.9,0,0,0,.282.048l.235-.032a.875.875,0,0,0,.218-.094.887.887,0,0,0,.471.138.82.82,0,0,0,.195-.024l-.851.781Q321.92,383.006,321.647,382.6ZM357.8,353.471a.552.552,0,0,0-.128-.093l0-.026a1.02,1.02,0,0,1,.1.026,1.3,1.3,0,0,1,.114.065l.094.082c-.029.029-.06.056-.089.084A.524.524,0,0,0,357.8,353.471Zm-.11-.181v0a.387.387,0,0,1,.048-.061Zm-11.144-9.267.008-.005a.67.67,0,0,0,.117.646c-.135.115-.27.231-.408.342-.46.352-.919.705-1.385,1.048l-.16.119-.018-.007a.8.8,0,0,0-.124-.024c.234-.181.466-.366.7-.55l.012-.009.074-.058,0,0a.639.639,0,0,0,.176-.293.679.679,0,0,0-.041-.459l.006,0Q346.021,344.4,346.545,344.022Zm-26.4,14.023-.019.013-.211-.422C320,357.773,320.072,357.909,320.149,358.046Z" transform="translate(-19.982 231.248)" fill="#fff"/>
      <path id="Path_6940" data-name="Path 6940" d="M716.233,138.736c-.191-.191-.368-.388-.539-.594a16.5,16.5,0,0,1-1.734-3.091,20.394,20.394,0,0,1-.69-2.055,18.759,18.759,0,0,1-.447-2.311c-.215-1.79-.322-3.6-.465-5.393-.12-1.515-.254-3.033-.443-4.541a29.861,29.861,0,0,0-1.148-5.634A17.129,17.129,0,0,0,709.7,112.6a15.76,15.76,0,0,0-1.772-2.553,9.454,9.454,0,0,0-2.012-1.832,4.7,4.7,0,0,0-1.428-.64,2.119,2.119,0,0,0-.576-.074,5.577,5.577,0,0,0-.976.116,12.229,12.229,0,0,0-1.577.461l-1.4.448a1.775,1.775,0,0,0-.476.242,11.988,11.988,0,0,0-2.484.869,18.2,18.2,0,0,0-2.46,1.378c-.18.124-.351.267-.523.4a2,2,0,0,0-.464.544,1.874,1.874,0,0,0-.235.776,2.394,2.394,0,0,0,.165.9,11.645,11.645,0,0,0,.813,1.579c.448.786.841,1.591,1.23,2.406.273.688.55,1.372.781,2.076.3.9.58,1.8.848,2.719.507,1.736.978,3.482,1.46,5.226.475,1.714.995,3.409,1.538,5.1a24.717,24.717,0,0,0,2.637,5.87c-.131.4-.263.8-.389,1.193-.2.619-.366,1.242-.5,1.877a18.186,18.186,0,0,0-.309,2.334,26,26,0,0,0,.764,8.194,27.968,27.968,0,0,0,1.95,5.615c.007.029.014.058.022.088a40.379,40.379,0,0,0,1.413,4.394c.009.065.015.131.027.2.04.23.088.455.146.682.024.057.049.116.074.173.066.169.138.335.217.5a1.371,1.371,0,0,0,.313.354,17.017,17.017,0,0,0,1.533,2.83,8.242,8.242,0,0,0,1.6,2.108,1.681,1.681,0,0,0,.866.434c.228.162.466.309.71.449.019.074.038.149.057.225a1.2,1.2,0,0,0,2.2.287,1.167,1.167,0,0,0,.155-.663,1.675,1.675,0,0,0,.2-.276,1.7,1.7,0,0,0-.6-2.3c-.042-.024-.082-.05-.123-.074q-.24-1.194-.475-2.388a1.522,1.522,0,0,0,1.045-1.456c-.019-.137-.037-.274-.056-.411a1.556,1.556,0,0,0-.4-.682c-.036-.043-.071-.086-.106-.129a10.227,10.227,0,0,1-.944-1.7c-.165-.433-.335-.864-.47-1.308-.165-.538-.325-1.072-.461-1.617-.115-.463-.242-.923-.33-1.391l-.327-1.767c-.1-.882-.212-1.763-.26-2.652-.029-.527-.077-1.056-.086-1.584q-.015-.951-.033-1.9c-.016-1-.011-2-.031-3-.006-.344-.022-.689-.042-1.034.321.116.643.226.97.322a7.848,7.848,0,0,0,1.8.28,4.791,4.791,0,0,0,1.039-.1,5.443,5.443,0,0,0,.717-.178,1.986,1.986,0,0,0,1.437-1.887,1.961,1.961,0,0,0-.262-.973,1.823,1.823,0,0,0,.387-.295A1.886,1.886,0,0,0,716.233,138.736Zm-10.922,2.718a1.128,1.128,0,0,0-.223.3,7.887,7.887,0,0,0-.5,1.23,16.578,16.578,0,0,1,.413-1.8C705.1,141.276,705.206,141.366,705.31,141.454Zm.09-6.341a1.446,1.446,0,0,0-.263-.044c-.019-.032-.038-.063-.057-.1a1.26,1.26,0,0,0,.518-.2q.051.234.1.468A1.354,1.354,0,0,0,705.4,135.113Zm.266-22.653a13.5,13.5,0,0,1,1.172,1.866,1.7,1.7,0,0,0-1.537-.488c-.078-.285-.158-.57-.237-.854l-.187-.677c-.085-.3-.153-.606-.25-.9l-.05-.116A9.791,9.791,0,0,1,705.667,112.461Zm-9.586.4.011-.01a14.558,14.558,0,0,1,2.4-1.3c.26-.1.522-.191.786-.272a1.576,1.576,0,0,0,1.552.4l.966-.309-.006.046.006-.046h0c-.022.171-.044.343-.062.515-.007.059-.01.119-.011.179a1.214,1.214,0,0,0-.136-.092,1.237,1.237,0,0,0-1.692.444,1.233,1.233,0,0,0-.143.814l-.052-.026c-.138-.293-.29-.577-.449-.862a.788.788,0,0,0-.886-.361,1.37,1.37,0,0,0-.6.31,1.251,1.251,0,0,0-.31.829v.035a1.517,1.517,0,0,0-.12.1,2.8,2.8,0,0,0-.368.443c-.042.1-.085.2-.128.3Q696.46,113.427,696.08,112.861Zm14.784,27.172.013-.032a3.669,3.669,0,0,0,.135-.915,6.042,6.042,0,0,0-.085-1.425c.027-.019.053-.04.08-.061q.2.435.4.865a9.321,9.321,0,0,0,1.394,2.156A15.353,15.353,0,0,1,710.865,140.033Z" transform="translate(-185.131 -39.955)" fill="#fff"/>
      <path id="Path_6941" data-name="Path 6941" d="M669.108,688.249q-.731-1.688-1.444-3.384-.33-.864-.658-1.73c-.255-.674-.528-1.344-.757-2.029q-.19-.568-.37-1.141c-.036-.181-.074-.362-.109-.543-.313-1.58-.616-3.157-.89-4.744q-.325-1.9-.651-3.792c-.1-.556-.206-1.111-.286-1.67-.465-3.264-.919-6.531-1.412-9.79q-.262-2.338-.514-4.677l-.039-.487c-.095-1.182-.217-2.367-.271-3.553q-.269-6.058-.542-12.115c-.059-1.31-.044-2.625-.062-3.935,0-.094,0-.187,0-.281.29-.131.578-.267.857-.419a1.663,1.663,0,0,0-.4-3.039l-.444-.06c-.023,0-.045,0-.069,0q-.022-1.487-.043-2.975c-.038-2.569-.045-5.14-.049-7.71q.436-2.983.945-5.954c.252-1.463.506-2.926.824-4.377s.7-2.889,1.034-4.335a1.967,1.967,0,0,0-1.355-2.385,1.823,1.823,0,0,0-.466-.064,1.96,1.96,0,0,0-.546-.991,1.544,1.544,0,0,0-.681-.4,4.661,4.661,0,0,0-.551-.082c-.187.022-.372.046-.557.073a5.016,5.016,0,0,0-.74.32,6.988,6.988,0,0,0-.784.544c-.315.229-.617.478-.915.726-.267.223-.532.449-.8.674-.868.733-1.743,1.458-2.6,2.2q-2.314,1.993-4.623,3.991l-.261.13c-1.033.514-2.07,1.015-3.111,1.511-.954.455-1.9.915-2.871,1.332q-1.824.785-3.647,1.571c-.532.221-1.062.448-1.592.674-.1.042-.2.08-.3.121q2.085-2.976,4.145-5.968l1.737-2.537a23.108,23.108,0,0,0,2.518-4.378,4.676,4.676,0,0,0,.133-3.248,4.427,4.427,0,0,0-.825-1.406c-.153-.177-.311-.342-.477-.506a4.764,4.764,0,0,0-.45-.364,1.773,1.773,0,0,0-.514-.253,3.061,3.061,0,0,0-1.177-.222,4.96,4.96,0,0,0-1.647.316,10.243,10.243,0,0,0-2.827,1.7,15.661,15.661,0,0,0-3.535,4.155,19.088,19.088,0,0,0-1.318,2.677,19.745,19.745,0,0,0-.915,2.772,22.184,22.184,0,0,0-.484,2.98,17.221,17.221,0,0,0-.087,1.937c0,.276,0,.552,0,.828a19.845,19.845,0,0,0-.58,2.1,3.7,3.7,0,0,0-.139.791,2.286,2.286,0,0,0,.232,1.044,1.914,1.914,0,0,0,.392.524,1.36,1.36,0,0,0,.422.286c.007.031.009.066.017.1a1.534,1.534,0,0,0,.528.787,2.741,2.741,0,0,0-.612.518,1.13,1.13,0,0,0-.171,1.336,1.1,1.1,0,0,0,1.245.507c1.681-.555,3.323-1.219,4.971-1.864.8-.314,1.59-.667,2.384-1,.6-.253,1.2-.508,1.8-.781,1.484-.678,2.97-1.351,4.44-2.062l2.5-1.21c.715-.347,1.415-.728,2.122-1.091l.372-.19a1.422,1.422,0,0,0,1.011-.127c.819-.423,1.634-.856,2.456-1.273.533-.27,1.068-.536,1.59-.827.072-.04.141-.083.212-.124,0,.284,0,.569.009.854q.035,1.952.07,3.906-.072.7-.143,1.394-.319,3.105-.637,6.209c-.114,1.108-.174,2.219-.255,3.331-.133,1.841-.268,3.683-.393,5.524l-2.151.93q-1.962.85-3.918,1.713c-1.109.417-2.218.831-3.334,1.228l-4.837,1.717q1.824-2.753,3.609-5.533c.944-1.477,1.868-2.963,2.785-4.457a16.253,16.253,0,0,0,1.457-2.772,5.48,5.48,0,0,0,.318-1.58,4.414,4.414,0,0,0-.1-.9,2.279,2.279,0,0,0-.461-1.015,3.219,3.219,0,0,0-.737-.733,2.641,2.641,0,0,0-.747-.4,4.123,4.123,0,0,0-1.37-.213c-.086,0-.172,0-.258.006a5.736,5.736,0,0,0-1.76.4,10.122,10.122,0,0,0-1.8.9,16.238,16.238,0,0,0-2.295,1.785,18.958,18.958,0,0,0-2.125,2.321,20.14,20.14,0,0,0-3.178,5.641,20.854,20.854,0,0,0-.848,2.745,22.325,22.325,0,0,0-.479,3.245,14.626,14.626,0,0,0-.007,2.98,6.694,6.694,0,0,0,.281,1.345,6.589,6.589,0,0,0,.751,1.529,1.572,1.572,0,0,0,.907.7,1.529,1.529,0,0,0,.99-.063,1.587,1.587,0,0,0,.675-.036,1.522,1.522,0,0,0,.738-.465,1.543,1.543,0,0,0,.375.166,1.662,1.662,0,0,0,1.228-.161c1.533-.779,3.073-1.545,4.613-2.311,1.167-.581,2.361-1.112,3.542-1.664.256-.12.514-.234.77-.352.35-.124.7-.246,1.049-.375,1.758-.645,3.515-1.286,5.271-1.939l.8-.295c0,.029,0,.058,0,.087q-.016.3-.031.593-.419,5.929-.522,11.876-.079,2.358-.143,4.718-.038,1.447-.056,2.9-.013.777-.024,1.553c-.011.85-.031,1.7.011,2.548a8.208,8.208,0,0,0,.135,1.273,5.041,5.041,0,0,0,.5,1.251,1.417,1.417,0,0,0,.131.205c.185,1.522.4,3.04.635,4.554.251,1.644.5,3.292.829,4.924q.425,2.1.851,4.194.364,1.791.728,3.582c.124.609.28,1.212.428,1.816a18.173,18.173,0,0,0,.607,2c.332,1.875.733,3.737,1.243,5.578.385,1.393.777,2.782,1.189,4.167.136.459.309.908.464,1.361.11.32.27.635.4.946a7.171,7.171,0,0,0,.708,1.268,1.474,1.474,0,0,0,.834.641,1.395,1.395,0,0,0,1.575-2.048,15.752,15.752,0,0,1-.835-1.71c-.044-.111-.086-.222-.129-.333a1.622,1.622,0,0,0,.584-.234,1.124,1.124,0,0,0,.485-.637c.058.022.116.044.177.061a2.006,2.006,0,0,0,.7.065l.394-.052c.023.044.043.089.065.133a2.08,2.08,0,0,0,3.8-.5,2.162,2.162,0,0,0-.209-1.6C670.152,690.693,669.636,689.467,669.108,688.249Zm-9.272-83c-.062.008-.124.015-.186.029,0-.056,0-.111,0-.166a1.438,1.438,0,0,0,.2.09Zm-3.01,2.046-.049.021.049-.041Zm2.115-3.865-.013.093h0l.032-.237ZM641.4,599.611a5.511,5.511,0,0,1,.762-.213c.09,0,.176,0,.264,0l.041.01c.029.031.056.063.084.094l-.1.048c-.071.029-.141.059-.212.09a2.808,2.808,0,0,0-.605.392,4.714,4.714,0,0,0-.377.353,2.611,2.611,0,0,0-.675-.332A8.19,8.19,0,0,1,641.4,599.611Zm-4.876,39.965-.217.328c0-.023,0-.046,0-.07Zm9.648-15.857v0l-.117-.152A1.127,1.127,0,0,1,646.176,623.719Zm.009.107c0,.028,0,.057,0,.085a4.572,4.572,0,0,1-.12.451,1.343,1.343,0,0,0-.393-.065,1.5,1.5,0,0,0-.532.105,2.5,2.5,0,0,0,.078-.42.131.131,0,0,0,0-.018c.165-.051.33-.1.5-.134A4.561,4.561,0,0,1,646.185,623.826Z" transform="translate(-134.699 -172.599)" fill="#fff"/>
      <path id="Path_6942" data-name="Path 6942" d="M84.547,177.674c1.825,1.706,3.65,3.422,5.59,4.995a1.76,1.76,0,0,0,1.161.482,1.641,1.641,0,0,0,1.161-.482,1.66,1.66,0,0,0,0-2.321c-1.083-1.118-2.193-2.209-3.309-3.293a1.292,1.292,0,0,0,.1-.506,1.352,1.352,0,0,0-.393-.949,1.314,1.314,0,0,0-.456-.292,1.779,1.779,0,0,0,.408-1.672,1.822,1.822,0,0,0-.827-1.075,1.725,1.725,0,0,0-1.387-.182c-.1.04-.193.078-.292.111a2.5,2.5,0,0,0-.493-.244c-.914-.355-1.821-.724-2.727-1.1l-.313-.307c-.133-.132-.252-.279-.378-.419l-1.181-1.3q-1.1-1.216-2.2-2.432c-.36-.4-.681-.83-1.016-1.245q-1.955-2.419-3.91-4.839-3.245-4.237-6.5-8.471c-.843-1.1-1.651-2.218-2.476-3.326q-2.274-3.058-4.547-6.112c-.567-.764-1.151-1.518-1.693-2.3L55.747,135.9q-2.61-3.746-5.219-7.494a15.087,15.087,0,0,1,1.582-.52,16.7,16.7,0,0,1,2.008-.373q.445-.056.89-.1a1.4,1.4,0,0,0,1.22,2.094,24.01,24.01,0,0,0,2.923-.371,22.809,22.809,0,0,0,3.33-.856c.354-.124.7-.269,1.044-.422a9.991,9.991,0,0,0,1.1-.213,9.886,9.886,0,0,0,1.8-.739A10.428,10.428,0,0,0,67.9,126a16.944,16.944,0,0,0,2.949-2.727,29.185,29.185,0,0,0,4.079-6.634c.523-1.1.97-2.245,1.442-3.372.63-1.5,1.215-3.026,1.714-4.576.38-1.182.762-2.362,1.051-3.565l0-.01q.631-1.258,1.238-2.53c.449-.938.857-1.9,1.268-2.851.479-1.031.928-2.075,1.385-3.115l.157-.369a1.545,1.545,0,0,0-.259-1.348,2.311,2.311,0,0,0-.843-1.171,2.254,2.254,0,0,0-1.08-.847,1.445,1.445,0,0,0-.04-.525,1.55,1.55,0,0,0-.706-.917,1.526,1.526,0,0,0-.77-.2A1.5,1.5,0,0,0,78.163,92c-.056.1-.109.208-.164.312a1.388,1.388,0,0,0-.385.161,5.867,5.867,0,0,0-.712.515,3.524,3.524,0,0,0-.281.309,1.589,1.589,0,0,0-.665.255c-.249.18-.49.371-.733.56a3.838,3.838,0,0,0-.291.348q-.25.316-.489.638c-.154.2-.271.446-.4.663-.289.475-.531.977-.786,1.47-.419.813-.811,1.639-1.2,2.465a47.563,47.563,0,0,1-4.157,7.751c-.09.111-.183.217-.276.325a9.311,9.311,0,0,0-1-.817,5.505,5.505,0,0,0-1.082-.569c-.374-.159-.737-.308-1.122-.432a5.6,5.6,0,0,0-.837-.174,7.6,7.6,0,0,0-1.739-.1,8.848,8.848,0,0,0-1.93.351,30.152,30.152,0,0,0-3.755,1.534c-.295.132-.58.292-.868.44-.316.162-.644.309-.953.486-.709.406-1.422.8-2.132,1.209a19.206,19.206,0,0,0-2.71,1.912c-.355.293-.692.609-1.031.923-.423.391-.848.777-1.255,1.186a13.159,13.159,0,0,0-.932,1.069,7.853,7.853,0,0,0-.972,1.468,6.261,6.261,0,0,0-.576,1.932c-.1.238-.187.48-.271.721-.006.018-.011.036-.016.054l-1.175-1.9-3.911-6.337q-.761-1.23-1.51-2.466l.412-.354a.773.773,0,0,0,.212-.787q.15-.151.3-.3c.262-.257.532-.5.809-.747a1.788,1.788,0,0,0,.847-.034,2.528,2.528,0,0,0,1.066-.573,4.87,4.87,0,0,0,.587-.719c.237-.268.47-.538.714-.8.084-.09.17-.178.256-.267.591-.33,1.192-.64,1.813-.911a15.181,15.181,0,0,1,3.258-.917,9.842,9.842,0,0,1,1.47-.044c1.012.275,2.027.536,3.06.719.539.1,1.083.174,1.628.223.284.066.569.127.858.175a5,5,0,0,0,1.42.083,7,7,0,0,0,1.573-.368,10.929,10.929,0,0,0,4.4-3.142,23.343,23.343,0,0,0,3.123-4.685c.776-1.473,1.442-3,2.139-4.511.5-1.086.97-2.183,1.466-3.27q.939-2.058,1.872-4.117c.419-.928.842-1.856,1.275-2.778a1.232,1.232,0,0,0,.339-.716c.063-.131.121-.263.185-.393a1.47,1.47,0,0,0,.141-1.078,1.408,1.408,0,0,0-.644-.837,1.414,1.414,0,0,0-1.916.5c-.075.135-.145.274-.219.41-.057.027-.116.048-.173.077a3.983,3.983,0,0,0-.6.446,6.05,6.05,0,0,0-.565.511c-.2.2-.393.41-.6.6-.838.772-1.668,1.556-2.553,2.277a1.9,1.9,0,0,0-.319.16,9.21,9.21,0,0,0-1.159.835c-.162.128-.321.261-.477.4-.032.019-.065.036-.1.055a2.078,2.078,0,0,0-.484-.058,2.045,2.045,0,0,0-1.77,1.005c-.133.033-.266.063-.4.089a13.624,13.624,0,0,1-2.924-.117c-1.875-.269-3.735-.663-5.593-1.03-.918-.18-1.845-.3-2.773-.426a13.657,13.657,0,0,0-2.926-.143,10.053,10.053,0,0,0-2.528.535,8.8,8.8,0,0,0-2.45,1.411,15.043,15.043,0,0,0-3.366,3.919,27.8,27.8,0,0,0-2.41,4.879A41.3,41.3,0,0,0,34.5,98.927c-.208.9-.369,1.81-.5,2.724,0,.032-.008.064-.013.1a1.776,1.776,0,0,0-1.17-.44c-.041,0-.082,0-.124.008L31.877,100l-.4-.645c-.258-.416-.587-.78-.837-1.2l-.126-.282a1.514,1.514,0,0,0-.126-.276.869.869,0,0,0-.747-.429,1.008,1.008,0,0,0-.456.119l-.032.017a.934.934,0,0,0-.428,1.04.777.777,0,0,0-.316-.127.493.493,0,0,0-.09-.008.4.4,0,0,0-.4.5c.2,1.129.355,2.265.511,3.4a.354.354,0,0,0,.694-.095q-.109-.82-.216-1.641l.027.051c.048.092.1.182.154.272q.433.761.863,1.522.477.845.956,1.688c.111.195.213.394.331.582l1.051,1.672c.161.4.322.806.479,1.209a.824.824,0,0,0,.352.458.759.759,0,0,0,.277.1l1.386,2.206q.389.619.778,1.237c.086.138.17.282.262.416q.387.564.774,1.125,1.105,1.794,2.211,3.586,3.187,5.166,6.371,10.334c.118.193.255.375.385.56l.574.826a1.732,1.732,0,0,0,.158.365,1.791,1.791,0,0,0,.446.5l.166.238,4.28,6.167,3.923,5.652c.453.65.9,1.3,1.373,1.939q3.874,5.239,7.75,10.478c.368.5.742.991,1.117,1.484l.414.614c.217.322.424.654.654.97a3.233,3.233,0,0,0,.591.667c.04.032.08.057.12.086l3.589,4.715c.909,1.2,1.854,2.363,2.791,3.536l1.321,1.653q-1.848-.995-3.7-1.992c-1.748-.944-3.464-1.954-5.193-2.931l-3.192-1.8c-1.071-.606-2.156-1.175-3.267-1.7a28.01,28.01,0,0,0-3.611-1.474,16.3,16.3,0,0,0-4.884-.785,13.2,13.2,0,0,0-2.825.3,10.013,10.013,0,0,0-3.236,1.365,11.659,11.659,0,0,0-1.377,1.076,10.2,10.2,0,0,0-1.32,1.515,12.682,12.682,0,0,0-1.56,3.08,8.514,8.514,0,0,0-.456,1.637,7.577,7.577,0,0,0-.057,2.046,8.256,8.256,0,0,0,1.026,3.34,9.893,9.893,0,0,0,1,1.363,11.816,11.816,0,0,0,1.306,1.309,30.094,30.094,0,0,0,2.657,2.067,19.64,19.64,0,0,0,3.257,1.841,21.245,21.245,0,0,0,3.373,1.2,30.131,30.131,0,0,0,3.885.706c1.2.154,2.4.271,3.612.326,1.363.062,2.731.036,4.095-.019,1.259-.051,2.516-.134,3.768-.271,1.411-.156,2.816-.376,4.219-.6,1.692-.263,3.379-.563,5.065-.865l.042.007c.509.094,1.019.195,1.529.28l1.043.173c.359.06.721.1,1.08.147a3.867,3.867,0,0,0,1.122-.1,1.957,1.957,0,0,0,1.366-1.368,2.15,2.15,0,0,0,.051-.25l.057-.011C84,177.146,84.268,177.414,84.547,177.674Zm-31.687-3.9h0a1.107,1.107,0,0,1-.111.047Zm-1.665-13.89q.64.011,1.279.081a2.167,2.167,0,0,0-.344.491,4.155,4.155,0,0,0-.576-.406A2.042,2.042,0,0,0,51.194,159.886ZM50.534,98.2l.079-.036.067-.048c.05.05.1.1.156.145l0,.028Zm9.321-.183c-.057.058-.116.113-.175.171.035-.049.07-.1.1-.147l.03-.041C59.828,98.01,59.842,98.014,59.855,98.021Zm.632,25.83.038.088-.122-.013C60.432,123.9,60.461,123.876,60.487,123.85Zm-12.134,1.437c-.053-.076-.1-.155-.154-.232a3.325,3.325,0,0,0,.408.191c-.072.032-.145.061-.217.094ZM37.337,105.673q-.316.333-.628.673-.513-.893-1.02-1.789a1.162,1.162,0,0,0,.191.075,1.234,1.234,0,0,0,.65,0,1.3,1.3,0,0,0,.732-.563c.061-.086.121-.172.179-.258a1.715,1.715,0,0,0,.5.45l.068.037a1.633,1.633,0,0,0,.12.571C37.863,105.132,37.6,105.4,37.337,105.673Zm10.549-20.56q-.419.087-.837.183a1.858,1.858,0,0,0-.18-.185C47.209,85.1,47.547,85.1,47.887,85.114Zm-3.852.78c-.008.022-.017.043-.026.065-.271.726-.47,1.474-.687,2.217h-.048a1.587,1.587,0,0,0-.049-.291,1.477,1.477,0,0,0-.673-.875c-.016-.009-.034-.014-.05-.023.156-.141.314-.28.478-.413A10.847,10.847,0,0,1,44.034,85.894Zm-.587,81.7a7.516,7.516,0,0,1-.024-1.321,10.373,10.373,0,0,1,.557-1.775q.218-.488.474-.952a7.9,7.9,0,0,0,.106.932c-.011.046-.022.092-.032.139a2.154,2.154,0,0,0-.476.5,2.438,2.438,0,0,0-.36.7,5.336,5.336,0,0,0-.15,2.206C43.508,167.885,43.474,167.743,43.448,167.6Zm5.564,6.037-.1-.059a4.479,4.479,0,0,0,.43-.3c.1.238.2.473.3.709C49.435,173.866,49.221,173.756,49.012,173.635Zm11.755,2.777a5.445,5.445,0,0,0,.622-.72,3.608,3.608,0,0,0,.259-.409l.066.056c.427.36.847.72,1.289,1.062-.173,0-.346.013-.518.017C61.912,176.43,61.339,176.425,60.767,176.412Z" transform="translate(124.468 65.026) rotate(68)" fill="#fff"/>
      <path id="Path_6943" data-name="Path 6943" d="M725.536,373.1c-1.231-1.378-2.462-2.763-3.787-4.052a1.3,1.3,0,0,0-.823-.432,1.213,1.213,0,0,0-.888.278,1.229,1.229,0,0,0-.154,1.71c.724.9,1.469,1.773,2.219,2.646a.97.97,0,0,0-.109.366,1,1,0,0,0,.227.725.977.977,0,0,0,.317.246,1.317,1.317,0,0,0-.412,1.2,1.349,1.349,0,0,0,.538.847,1.275,1.275,0,0,0,1.009.225c.074-.023.148-.044.223-.062a1.9,1.9,0,0,0,.347.212c.649.322,1.294.654,1.937.991.07.082.14.165.21.247.09.106.168.221.251.333l.784,1.041,1.457,1.938c.238.316.446.656.666.984q1.28,1.914,2.559,3.826,2.11,3.338,4.223,6.674c.548.864,1.07,1.744,1.6,2.615q1.471,2.4,2.943,4.806c.368.6.747,1.195,1.1,1.807q1,1.758,2.008,3.518l3.347,5.87a11.389,11.389,0,0,1-1.2.277,12.455,12.455,0,0,1-1.5.141q-.332.011-.663.012a1.033,1.033,0,0,0-.759-1.624,17.661,17.661,0,0,0-2.179.078,16.778,16.778,0,0,0-2.51.41c-.269.067-.535.151-.8.241a5.745,5.745,0,0,0-2.2.509,7.661,7.661,0,0,0-1.146.573,12.537,12.537,0,0,0-2.354,1.813,21.534,21.534,0,0,0-3.447,4.617c-.459.779-.865,1.59-1.287,2.389-.564,1.063-1.1,2.147-1.568,3.257-.358.846-.718,1.69-1.012,2.558l0,.007q-.549.886-1.08,1.781c-.393.662-.758,1.341-1.125,2.017-.422.727-.822,1.466-1.227,2.2-.047.087-.094.174-.14.262a1.145,1.145,0,0,0,.1,1.011,1.707,1.707,0,0,0,.543.919,1.663,1.663,0,0,0,.74.7,1.066,1.066,0,0,0-.006.389,1.147,1.147,0,0,0,.46.723,1.13,1.13,0,0,0,.553.2,1.11,1.11,0,0,0,1.029-.468c.049-.072.095-.146.141-.219a1.034,1.034,0,0,0,.295-.093,4.337,4.337,0,0,0,.558-.333,2.428,2.428,0,0,0,.228-.209,1.177,1.177,0,0,0,.507-.143c.2-.116.385-.241.577-.364a3,3,0,0,0,.237-.237q.2-.217.4-.439c.126-.139.229-.31.34-.461.246-.33.456-.684.677-1.031.364-.571.707-1.155,1.05-1.737a35.123,35.123,0,0,1,3.579-5.434c.073-.076.149-.148.225-.221a6.893,6.893,0,0,0,.685.668,4.076,4.076,0,0,0,.76.491c.265.142.522.275.8.393a4.08,4.08,0,0,0,.605.184,5.619,5.619,0,0,0,1.274.19,6.586,6.586,0,0,0,1.446-.131,22.352,22.352,0,0,0,2.869-.881c.226-.078.447-.177.668-.267.244-.1.5-.185.734-.295.549-.252,1.1-.5,1.651-.749a14.111,14.111,0,0,0,2.124-1.228c.282-.192.551-.4.822-.612.337-.26.676-.516,1-.79a9.752,9.752,0,0,0,.758-.726,5.842,5.842,0,0,0,.814-1.017,4.6,4.6,0,0,0,.553-1.384c.087-.17.17-.342.248-.514.006-.012.01-.026.016-.038l.738,1.479q1.231,2.465,2.461,4.93.479.956.949,1.917l-.327.233a.572.572,0,0,0-.208.566l-.244.2q-.315.257-.645.5a1.314,1.314,0,0,0-.626-.031,1.876,1.876,0,0,0-.824.351,3.578,3.578,0,0,0-.48.49c-.192.182-.383.366-.579.542-.069.061-.138.12-.207.179-.457.2-.921.392-1.4.55a11.2,11.2,0,0,1-2.462.459,7.24,7.24,0,0,1-1.086-.065c-.727-.27-1.458-.529-2.207-.733-.391-.106-.786-.2-1.184-.273-.205-.067-.411-.131-.621-.186a3.7,3.7,0,0,0-1.041-.155,5.176,5.176,0,0,0-1.184.166,8.1,8.1,0,0,0-3.455,2.022,17.218,17.218,0,0,0-2.612,3.245c-.67,1.033-1.263,2.114-1.876,3.181-.44.768-.86,1.545-1.3,2.312q-.829,1.453-1.654,2.909-.556.984-1.125,1.962a.915.915,0,0,0-.3.5c-.055.092-.108.186-.163.277a1.085,1.085,0,0,0-.175.785,1.041,1.041,0,0,0,.418.659,1.045,1.045,0,0,0,1.445-.242c.065-.095.125-.192.189-.288.044-.016.089-.027.133-.045a2.971,2.971,0,0,0,.475-.288,4.493,4.493,0,0,0,.45-.339c.161-.136.317-.276.483-.4.669-.513,1.333-1.036,2.033-1.508a1.4,1.4,0,0,0,.246-.1,6.9,6.9,0,0,0,.91-.538c.128-.083.254-.171.378-.26l.075-.035a1.518,1.518,0,0,0,1.724-.547c.1-.015.2-.029.3-.039a10.09,10.09,0,0,1,2.147.28c1.364.323,2.708.737,4.053,1.131.664.194,1.34.347,2.015.5a10.112,10.112,0,0,0,2.147.3,7.437,7.437,0,0,0,1.9-.226,6.508,6.508,0,0,0,1.9-.877,11.149,11.149,0,0,0,2.741-2.664,20.629,20.629,0,0,0,2.1-3.435,30.611,30.611,0,0,0,1.554-3.931c.213-.65.393-1.309.551-1.975.006-.023.01-.046.016-.069a1.312,1.312,0,0,0,.832.4.891.891,0,0,0,.092,0q.257.514.515,1.026l.251.5c.162.323.38.614.537.939.024.072.049.144.074.216a1.154,1.154,0,0,0,.074.212.637.637,0,0,0,.36.329.619.619,0,0,0,.162.037.743.743,0,0,0,.344-.057l.024-.011a.69.69,0,0,0,.385-.738.57.57,0,0,0,.225.115.4.4,0,0,0,.065.012.294.294,0,0,0,.327-.339c-.073-.846-.111-1.693-.149-2.541a.262.262,0,0,0-.519.023q.027.612.05,1.224l-.016-.04c-.03-.07-.064-.141-.1-.211l-.534-1.179q-.3-.654-.592-1.307c-.069-.151-.131-.3-.205-.451l-.663-1.3c-.092-.308-.184-.615-.273-.923a.608.608,0,0,0-.229-.361.569.569,0,0,0-.2-.089l-.875-1.718q-.245-.481-.491-.963c-.054-.108-.106-.219-.165-.324l-.5-.881-1.391-2.789q-2-4.019-4.007-8.038c-.074-.15-.163-.293-.246-.439q-.184-.322-.368-.646a1.264,1.264,0,0,0-.387-.681c-.036-.061-.071-.124-.106-.186l-2.744-4.829q-1.258-2.212-2.514-4.425c-.291-.51-.578-1.02-.884-1.521L738.9,392.23q-.358-.587-.725-1.167l-.265-.48c-.138-.252-.269-.511-.418-.758a2.41,2.41,0,0,0-.391-.531l-.083-.071-2.331-3.713c-.59-.942-1.209-1.865-1.821-2.791L732,381.413q1.3.857,2.591,1.713c1.226.813,2.423,1.671,3.632,2.505l2.232,1.542c.748.517,1.511,1.009,2.294,1.472a20.837,20.837,0,0,0,2.562,1.327,12.076,12.076,0,0,0,3.547.9,9.77,9.77,0,0,0,2.1-.031,7.4,7.4,0,0,0,2.476-.79,8.589,8.589,0,0,0,1.086-.7,7.5,7.5,0,0,0,1.074-1.029,9.342,9.342,0,0,0,1.354-2.165,6.29,6.29,0,0,0,.445-1.176,5.574,5.574,0,0,0,.178-1.5,6.107,6.107,0,0,0-.533-2.529,7.317,7.317,0,0,0-.648-1.071,8.79,8.79,0,0,0-.875-1.051,22.21,22.21,0,0,0-1.82-1.7,14.468,14.468,0,0,0-2.278-1.574,15.669,15.669,0,0,0-2.405-1.112,22.316,22.316,0,0,0-2.816-.779c-.875-.193-1.753-.36-2.64-.481-1-.137-2.009-.208-3.018-.259-.931-.046-1.862-.068-2.795-.05-1.05.021-2.1.09-3.148.158-1.264.082-2.528.189-3.791.3l-.03-.009c-.369-.1-.738-.211-1.108-.308l-.758-.2c-.26-.068-.524-.123-.786-.18a2.827,2.827,0,0,0-.834,0,1.45,1.45,0,0,0-1.1.917,1.467,1.467,0,0,0-.053.182l-.044,0C725.907,373.529,725.724,373.314,725.536,373.1Zm23.089,4.981h0c.027-.01.056-.019.085-.027Zm.3,10.346q-.47-.051-.937-.145a1.62,1.62,0,0,0,.287-.339,3.045,3.045,0,0,0,.4.337A1.567,1.567,0,0,0,748.928,388.43Zm-3.617,45.494-.061.021-.052.031c-.033-.04-.068-.08-.105-.117v-.021Zm-6.88-.485c.045-.04.093-.076.14-.115l-.087.1-.025.029A.269.269,0,0,0,738.431,433.44Zm1.252-19.075c-.006-.022-.015-.044-.022-.067l.089.018Zm9.037-.251c.034.059.065.12.1.181a2.412,2.412,0,0,0-.288-.168l.166-.054Zm6.813,15.186c.17-.15.339-.3.506-.455q.319.692.633,1.386a.866.866,0,0,0-.136-.069.906.906,0,0,0-.479-.043.961.961,0,0,0-.576.366c-.052.06-.1.119-.149.179a1.258,1.258,0,0,0-.343-.365l-.047-.032a1.181,1.181,0,0,0-.051-.429C755.109,429.662,755.323,429.483,755.532,429.3Zm-9.141,14.447c.21-.024.419-.05.629-.079a1.257,1.257,0,0,0,.121.149C746.889,443.8,746.64,443.781,746.391,443.746Zm2.89-.319c.008-.015.016-.03.023-.045.249-.517.444-1.054.654-1.588l.035,0a1.111,1.111,0,0,0,.017.217,1.093,1.093,0,0,0,.438.69c.011.008.024.013.036.02-.124.094-.25.185-.38.272A7.88,7.88,0,0,1,749.281,443.427Zm5.868-60.164a5.482,5.482,0,0,1-.07.975,7.652,7.652,0,0,1-.528,1.271q-.194.345-.413.67a5.882,5.882,0,0,0-.016-.694c.011-.033.023-.067.033-.1a1.579,1.579,0,0,0,.383-.334,1.8,1.8,0,0,0,.313-.494,3.957,3.957,0,0,0,.258-1.616C755.123,383.048,755.139,383.154,755.149,383.263Zm-3.7-4.819.066.049a3.316,3.316,0,0,0-.337.2q-.084-.271-.174-.542C751.156,378.246,751.3,378.342,751.451,378.444Zm-8.477-2.829a4.035,4.035,0,0,0-.507.49,2.679,2.679,0,0,0-.218.284l-.044-.045c-.292-.294-.576-.587-.88-.868.128.007.255.013.383.022C742.132,375.526,742.553,375.568,742.974,375.616Z" transform="translate(-132.848 -56.023)" fill="#fff"/>
      <path id="Path_6944" data-name="Path 6944" d="M338.438,602.717l-.038-.074-.241-.46q-.284-.54-.567-1.08-.637-1.217-1.286-2.428c-.4-.741-.8-1.478-1.2-2.216-.24-.441-.471-.886-.7-1.331l-.1-.2c-.228-.472-.435-.957-.651-1.435l-1.094-2.419c-.41-.906-.8-1.82-1.2-2.731q-.739-1.691-1.478-3.383-.5-1.287-1.008-2.573l-.624-1.593c-.054-.138-.108-.276-.162-.413-.151-.386-.268-.786-.4-1.178a.554.554,0,0,0-.3-.334l-.005-.029c-.019-.1-.049-.2-.074-.293a.21.21,0,0,0-.2-.153.208.208,0,0,0-.2.153c-.01.067-.024.134-.03.2a.985.985,0,0,0,0,.185.5.5,0,0,0-.185.543c.147.443.285.889.454,1.324q.185.477.372.955l1.037,2.661c.135.346.266.693.411,1.035l.021.1-.168-.385L327.77,582.6c-.129-.313-.246-.63-.367-.946-.2-.521-.4-1.042-.615-1.559a.438.438,0,0,0-.861.117,7.705,7.705,0,0,0,.1.808q.084.653.167,1.306a.438.438,0,0,0,.118.286.407.407,0,0,0,.287.119.4.4,0,0,0,.171-.039c.208.581.445,1.153.668,1.728.181.467.358.935.55,1.4l1.019,2.461c.169.409.339.816.52,1.22l1.1,2.443c.184.411.362.825.555,1.232l1,2.116q.82,1.726,1.626,3.458l.294.633a17.257,17.257,0,0,0-1.481-.9,10.833,10.833,0,0,0-1.374-.617,3.671,3.671,0,0,0-.666-.164,4.7,4.7,0,0,0-.775-.067l-.142,0a3.4,3.4,0,0,0-.775.117,3.547,3.547,0,0,0-.723.314,4.419,4.419,0,0,0-.647.45,4.216,4.216,0,0,0-.506.478,4.98,4.98,0,0,0-.778,1.134,6.067,6.067,0,0,0-.289.71,4.214,4.214,0,0,0-.168.858c-.007.057-.012.115-.015.172a3.733,3.733,0,0,0-.231.5,2.888,2.888,0,0,0-.153.712,2.932,2.932,0,0,0,.018.829,3.933,3.933,0,0,0,.476,1.279,4.809,4.809,0,0,0,.887,1.128,7.4,7.4,0,0,0,2.393,1.416,11.742,11.742,0,0,0,4.042.848,11.611,11.611,0,0,0,2.2-.155,6.534,6.534,0,0,0,.918-.214,3.2,3.2,0,0,0,.994-.486l.108-.083c.244-.026.488-.058.731-.1a.633.633,0,0,0,.393-.3c.008-.015.014-.031.021-.046a.757.757,0,0,0,.23-.157.773.773,0,0,0,.218-.443.729.729,0,0,0,.382.256.715.715,0,0,0,.55-.072.723.723,0,0,0,.256-.976C339.635,604.756,339.033,603.739,338.438,602.717Zm-2.121,2.073c.085.113.165.228.245.344l-.035.005-.046.009c-.707.067-1.421.061-2.13.058a27.751,27.751,0,0,1-3.169-.159,10.583,10.583,0,0,1-1.187-.232,6.248,6.248,0,0,1-.9-.9,4.109,4.109,0,0,1-.464-.787,5.072,5.072,0,0,1-.283-1.073,3.2,3.2,0,0,1-.022-.44c.046-.023.091-.046.138-.067a5.669,5.669,0,0,1,1.113-.3,4.722,4.722,0,0,1,.961-.006,6.537,6.537,0,0,1,.722.156,8.14,8.14,0,0,1,.9.321,12.037,12.037,0,0,1,2.459,1.439A10.562,10.562,0,0,1,336.317,604.791Zm-8.642-2.228c-.01-.042-.019-.084-.027-.126s0-.056,0-.085C327.653,602.423,327.663,602.493,327.675,602.563Zm1.691-16.161-.014-.072.524,1.214.156.364.025.06.139.337Zm.209,13.2a3.792,3.792,0,0,1,.581.006c.068.013.135.028.2.044l-.081-.008c-.063,0-.127-.006-.19-.006-.161,0-.322.012-.482.027-.124.011-.248.028-.372.047.021-.011.04-.023.061-.033A2.333,2.333,0,0,1,329.575,599.6Z" transform="translate(-96.826 48.48)" fill="#fff"/>
      <path id="Path_6945" data-name="Path 6945" d="M212.527,316.233l-.139-.019-.036,0Z" transform="translate(-35.424 -45.958)" fill="#fff"/>
      <path id="Path_6946" data-name="Path 6946" d="M210.143,315.913h0Z" transform="translate(-34.999 -45.901)" fill="#fff"/>
      <path id="Path_6947" data-name="Path 6947" d="M209.214,174.691v0l0,.022Z" transform="translate(-34.821 -18.777)" fill="#fff"/>
      <path id="Path_6948" data-name="Path 6948" d="M204.8,191.751l.007-.016c-.011.026-.023.051-.033.077Z" transform="translate(-33.969 -22.051)" fill="#fff"/>
      <path id="Path_6949" data-name="Path 6949" d="M271.539,597.562l.011-.074c.013-.1.026-.2.04-.295C271.572,597.317,271.555,597.439,271.539,597.562Z" transform="translate(-46.791 -99.924)" fill="#fff"/>
      <path id="Path_6950" data-name="Path 6950" d="M260.708,532.9a3.8,3.8,0,0,0-1.435-.791c-.151-.03-.3-.053-.457-.073-.314-.043-.628-.085-.943-.124a1.621,1.621,0,0,0-.217-.008h-.1c-.432-.011-.863-.017-1.3-.017-.13,0-.26,0-.39,0-1.195.011-2.39.036-3.585.061q-1.582.033-3.163.073a1.444,1.444,0,0,0-1.308-.824c-.031,0-.059.007-.089.009a4.129,4.129,0,0,0-1.775-.34c-.347,0-.7.024-1.04.053l-1.639.136c-.9.075-1.79.158-2.685.237-1.537.136-3.073.273-4.608.427-3.877.386-7.747.815-11.619,1.257-3.3.376-6.6.8-9.9,1.25l-12.7,1.733c-2.927.4-5.845.87-8.768,1.308l-13.519,2.025c-2.434.364-4.861.777-7.288,1.171l-.924.15a4.138,4.138,0,0,0-2.481-.128,3.22,3.22,0,0,0-1.361.752l-9.533,1.547q-1.743.284-3.482.577a8.018,8.018,0,0,0,.14-1.084.637.637,0,0,0-.466-.612.616.616,0,0,0-.166-.023.643.643,0,0,0-.614.466c-.142.5-.266,1-.389,1.5l-4.341.733a2.53,2.53,0,0,0-1.57,1.208,2.627,2.627,0,0,0,.943,3.593l.627.265a2.66,2.66,0,0,0,1.4,0l.427-.071c-.739,1.592-1.508,3.167-2.282,4.742a.945.945,0,0,0,.333,1.272.748.748,0,0,0,.085.043q-.4,1.252-.785,2.509c-.411,1.336-.822,2.669-1.2,4.016q-.6,2.135-1.2,4.272c-.827,2.934-1.628,5.875-2.51,8.792q-1.452,4.8-2.931,9.6c-.322,1.043-.65,2.081-.946,3.131q-.831,2.933-1.659,5.865c-.3,1.053-.617,2.1-.889,3.163q-.705,2.751-1.41,5.5-1.516,5.914-2.932,11.85l0,0c-.086-.224-.17-.452-.254-.679-.133,1.082-.334,2.16-.511,3.233h0l-.019.112-.012.072c-.016.1-.032.193-.048.289a.756.756,0,0,0-.382.019c-.208.07-.409.134-.611.224a1,1,0,0,0-.313.278,1.889,1.889,0,0,0-.24.368,4.338,4.338,0,0,0-.314,1.372c-.1.652-.251,1.3-.381,1.949-.085.428-.174.855-.249,1.284q-.194,1.139-.391,2.28c-.1.591-.22,1.184-.3,1.779.011-.077.021-.154.031-.23-.147,1.025-.284,2.051-.428,3.076-.133.961-.288,1.922-.4,2.885q-.219,1.916-.448,3.83a70.674,70.674,0,0,0-5.647-13.5,37.013,37.013,0,0,0-4.273-6.172,16.768,16.768,0,0,0-2.428-2.343c-.5-.391-1.007-.771-1.541-1.117a8.035,8.035,0,0,0-1.962-.891,5.1,5.1,0,0,0-.831-.158c-.382-.053-.748-.1-1.132-.112-.069,0-.138,0-.207,0a9.05,9.05,0,0,0-1.765.217,7.32,7.32,0,0,0-1.837.741,11.836,11.836,0,0,0-1.881,1.282,9.531,9.531,0,0,0-2.327,2.7,13.119,13.119,0,0,0-.787,1.745,11.633,11.633,0,0,0-.541,1.916,20.476,20.476,0,0,0-.4,3.806,25.638,25.638,0,0,0,.34,4.22,31.08,31.08,0,0,0,2.177,7.335c.5,1.209,1.021,2.4,1.608,3.573a29.653,29.653,0,0,0,1.99,3.346,44.57,44.57,0,0,0,4.762,5.8,31.487,31.487,0,0,0,5.842,4.735,38.493,38.493,0,0,0,4.67,2.416c1.458.667,2.925,1.344,4.433,1.9-.073.511-.149,1.024-.217,1.536v0c-.007.056-.015.111-.023.169l0,.031-.01.075.006-.044q-.013.107-.029.213a1.033,1.033,0,0,0,2.03.274,9.768,9.768,0,0,0,.341-1.578c.215.059.429.12.647.173a2.484,2.484,0,0,0,.832.052,9.318,9.318,0,0,0,.163,2.2.667.667,0,0,0,.641.486.66.66,0,0,0,.638-.486c.189-1.1.313-2.206.442-3.313l.048-.408c.014-.042.03-.083.042-.127a2.232,2.232,0,0,0,.066-.793c.065-.552.128-1.1.2-1.655.225-1.84.436-3.68.669-5.519q.138-1.089.272-2.179c0,.2,0,.394,0,.591a.747.747,0,0,0,.543.714.739.739,0,0,0,.836-.34c.048-.111.1-.223.138-.339a2.347,2.347,0,0,0,.082-.5c.036-.311.047-.625.066-.937.013-.22.04-.439.062-.657q.091-.927.184-1.855c.1-1.041.215-2.081.324-3.122.185-1.775.393-3.551.6-5.324q.1-.814.193-1.629a2.135,2.135,0,0,0,.2-.478,2.248,2.248,0,0,0,.074-.714,2.792,2.792,0,0,0,1.391-.383,2.834,2.834,0,0,0,1.3-1.684,2.776,2.776,0,0,0-.348-2.248,2.065,2.065,0,0,0-.058-.308c-.105-.516-.185-1.035-.259-1.556-.017-.139-.032-.279-.049-.418q1.395-4.177,2.785-8.356.251-.662.5-1.323c1.675-4.4,3.367-8.8,4.995-13.22q1.523-4.144,3.049-8.288c.751-2.036,1.47-4.084,2.2-6.127s1.468-4.075,2.208-6.111c.386-1.062.759-2.131,1.159-3.187q.686-1.8,1.365-3.6c.268-.71.551-1.415.837-2.119.137-.313.274-.625.4-.941.032-.07.064-.141.1-.211.056-.131.11-.262.166-.393a1.679,1.679,0,0,0,0-.872,1.654,1.654,0,0,0-1.147-1.147l-.054-.01a1.694,1.694,0,0,0-.827-.018q.187-.488.377-.976c1.438-.181,2.875-.372,4.307-.59,3.89-.591,7.779-1.193,11.671-1.77,5.353-.8,10.711-1.569,16.062-2.382q4.839-.548,9.676-1.118c-.147.525-.272,1.056-.39,1.586-.376,1.692-.646,3.406-.891,5.122-.2,1.41-.38,2.82-.542,4.234q-.491,2.1-.99,4.2c-.772,3.219-1.572,6.432-2.318,9.658-.4,1.733-.827,3.462-1.185,5.2-.276,1.352-.565,2.7-.833,4.057q-.244.841-.488,1.682c-.5,1.707-.972,3.422-1.454,5.134-.026.09-.05.179-.076.27-.049-.111-.1-.221-.145-.332q-.469-1.042-.952-2.079l-.063.471q-.337,1.7-.692,3.388c.114.215.216.437.309.664a8.387,8.387,0,0,1,.337.964q.033.194.067.39l0,.022.015.082h0l.046.263c-.085.305-.171.611-.256.915q-.273.982-.541,1.966a.979.979,0,0,0,.675,1.191.961.961,0,0,0,.287.028l0,.028v0l-.006.126c-.017.369-.047.747-.065,1.126.023.1.042.2.061.3.039.2.072.4.1.607.012.105.019.212.028.318.015.2.026.411.027.62q-.105.78-.21,1.562-.1.379-.2.758c-.06.231-.117.463-.177.695-.045.112-.09.224-.14.334-.019.043-.038.086-.058.128a8.116,8.116,0,0,1-.653,1.132,1.736,1.736,0,0,0,.14.3,1.754,1.754,0,0,0,.168.231q-.275,1.1-.551,2.193c-.44,1.739-.868,3.48-1.294,5.222q-.2.806-.387,1.616l-.281,1.21c-.2-.852-.44-1.7-.721-2.521a27.766,27.766,0,0,0-1.552-3.669,36.472,36.472,0,0,0-2.037-3.387q-1.048-1.6-2.213-3.125-.48-.79-.986-1.563a31.477,31.477,0,0,0-4.916-5.964,18.925,18.925,0,0,0-2.812-2.132l-.165-.1a7.532,7.532,0,0,0-.81-.952,5.007,5.007,0,0,0-1.853-1.05l-.2-.036a1.736,1.736,0,0,0-.545-.089,1.711,1.711,0,0,0-.271.022q-.321.041-.644.086a7.45,7.45,0,0,0-.738.321,2.737,2.737,0,0,0-.608.474,6.2,6.2,0,0,0-1.693.625,4.744,4.744,0,0,0-.844.609,6.47,6.47,0,0,0-.553.52,8.367,8.367,0,0,0-1.223,1.708,9.819,9.819,0,0,0-1.047,3.3,18.349,18.349,0,0,0-.192,1.917,12.9,12.9,0,0,0,.121,2.125,31.911,31.911,0,0,0,2,7.675,77.882,77.882,0,0,0,3.285,7.318c1.121,2.187,2.382,4.293,3.611,6.421.877,1.514,1.876,2.951,2.841,4.41.89,1.348,1.863,2.637,2.877,3.9a22.106,22.106,0,0,0,2.239,2.489,18.417,18.417,0,0,0,1.5,1.228,3.662,3.662,0,0,0,1.054.528c.224.194.47.364.712.536a3.89,3.89,0,0,0,.914.4l.173.026a1.651,1.651,0,0,0,.808.063,3.413,3.413,0,0,0,1.382-.386l.027-.014a17.449,17.449,0,0,0,1.42,1.756,2.157,2.157,0,0,0,3.031,0,2.079,2.079,0,0,0,.615-1.53,1.446,1.446,0,0,0,.818-.191,1.392,1.392,0,0,0,.661-.858c.024-.134.046-.268.07-.4a1.724,1.724,0,0,0,.584-1.808l-.171-.559c.035-.2.071-.4.1-.6.133-.547.262-1.095.389-1.644.119-.51.245-1.019.345-1.534.04-.2.08-.406.121-.609.166-.583.355-1.159.576-1.726a1.316,1.316,0,0,0,0-.695,1.219,1.219,0,0,0-.076-.2c.025-.154.048-.309.071-.465q.19-1.328.38-2.657c.091-.64.194-1.28.271-1.921.174-1.459.355-2.917.531-4.376q.166-1.362.343-2.723c.119-.415.242-.828.364-1.243v.023a1.053,1.053,0,0,0,.531.924,1.065,1.065,0,0,0,.541.147,1.038,1.038,0,0,0,.759-.315c.1-.122.2-.25.3-.377a1.473,1.473,0,0,0,.182-.545c.061-.273.094-.553.145-.828.034-.185.058-.372.086-.557q.11-.707.22-1.413c.149-.968.289-1.936.434-2.9.238-1.587.463-3.174.717-4.758s.513-3.189.769-4.784c.271-.865.541-1.73.818-2.594q1.88-5.88,3.76-11.76c.517-1.617,1.035-3.229,1.582-4.836q1.892-5.537,3.784-11.076,1.433-4.2,2.867-8.4c1.181-3.46,2.416-6.9,3.633-10.345a1.349,1.349,0,0,0-.937-1.65,1.308,1.308,0,0,0-.353-.048,1.346,1.346,0,0,0-.679.183,1.406,1.406,0,0,0-.616.8l-.462,1.309c.1-.391.192-.785.261-1.184a5.809,5.809,0,0,0,.079-.646,5.986,5.986,0,0,0-.023-.6.7.7,0,0,0-.027-.148c3.286-.259,6.575-.466,9.859-.742q5.239-.44,10.469-.935,3.734-.353,7.461-.742,1.462-.153,2.92-.342c.234-.031.47-.06.706-.089l0,.065c.082,1.748.141,3.5.246,5.25l.044.728c-.06.659-.119,1.317-.184,1.975-.189,1.937-.465,3.868-.582,5.812a1.881,1.881,0,0,0,.453,1.3c-.2,2.249-.438,4.494-.69,6.738a2.174,2.174,0,0,0-.887,1.172,7.184,7.184,0,0,0-.271,1.638q-.093.576-.175,1.153-.2,1.508-.4,3.016c-.075.553-.149,1.1-.195,1.654-.091,1.1-.193,2.208-.284,3.313q-.116.394-.234.788c-.107-.309-.217-.617-.335-.923a5.031,5.031,0,0,1-.044.633c-.028.21-.054.421-.08.632h0l-.017.136c.044.27.071.545.089.823q-.568,1.909-1.138,3.818c-.3,1.007-.538,2.03-.8,3.047q-.36,1.4-.723,2.807c-.105.413-.223.824-.316,1.239q-.484,2.166-.966,4.33c-.168.751-.317,1.507-.475,2.26-.066.315-.133.629-.2.945-.091.455-.185.909-.263,1.366a14.43,14.43,0,0,0-.158,1.7,1.551,1.551,0,0,0,.884,1.418q-.061.467-.123.933l-.024.186-.006.045.006-.044c-.241,1.853-.424,3.716-.635,5.572-.006.055-.012.109-.018.164-.37-1.062-.806-2.1-1.26-3.128-.541-1.222-1.144-2.412-1.8-3.578-1.018-1.814-2.168-3.544-3.345-5.257a21.775,21.775,0,0,0-1.664-2.134,7.085,7.085,0,0,0-3.128-1.985,5.032,5.032,0,0,0-1.021-.175c-.155-.015-.3-.023-.452-.023-.111,0-.221,0-.336.014a5.26,5.26,0,0,0-1.881.533,7.162,7.162,0,0,0-1.533,1.05c-.018.015-.031.033-.048.048-.047-.015-.091-.033-.139-.048a5.927,5.927,0,0,0-1.071-.18,5.069,5.069,0,0,0-1.238.027c-.07-.259-.141-.518-.212-.777-.029-.136-.062-.269-.1-.4a3.486,3.486,0,0,0-.259-.638,1.57,1.57,0,0,0-.528-.558,3.464,3.464,0,0,0-.675-.268,1.209,1.209,0,0,0-1.48.841,16.063,16.063,0,0,0-.322,1.7,11.576,11.576,0,0,0,0,1.826c.006.107.014.212.022.318-.162.2-.313.4-.458.6a10.955,10.955,0,0,0-1.528,3.31,12.268,12.268,0,0,0-.368,1.747,17.755,17.755,0,0,0-.2,2.332,22.638,22.638,0,0,0,.349,3.907,27.131,27.131,0,0,0,.957,3.919c.388,1.23.875,2.423,1.378,3.609a32.217,32.217,0,0,0,1.7,3.4,43.217,43.217,0,0,0,4.518,6.3c1.207,1.439,2.486,2.814,3.823,4.131.372.368.745.736,1.121,1.1a13.619,13.619,0,0,0,2.982,2.656c.043.027.089.045.133.069a11.344,11.344,0,0,0,2.959,1.787l.108.039a3.234,3.234,0,0,0,.6.556,2.716,2.716,0,0,0,.775.354,2.559,2.559,0,0,0,1.137.023,2.934,2.934,0,0,0,1.519-.863,5.1,5.1,0,0,0,.567-.721c.032-.044.061-.094.09-.141,0,.021,0,.042,0,.063a11.88,11.88,0,0,0,0,1.469,8.313,8.313,0,0,0,.274,1.407,1.394,1.394,0,0,0,2.687,0c.122-.464.253-.924.359-1.392s.179-.928.254-1.394c.082-.5.159-1,.245-1.492q.248-1.441.5-2.88l.085-.486a1.836,1.836,0,0,0,1.038-.511,1.885,1.885,0,0,0,0-2.64c-.118-.119-.228-.238-.334-.363-.026-.036-.05-.073-.076-.109l0-.017q.8-4.609,1.586-9.219c.486-2.831.93-5.668,1.388-8.5.171-1.059.357-2.117.512-3.18q.365-2.5.733-4.992c.041-.28.081-.562.122-.842a3.3,3.3,0,0,0,1.23-1.159,1.854,1.854,0,0,0,.222-.406q.156-.372.313-.743a6.939,6.939,0,0,0,.124-1.11q-.063-.562-.145-1.12c-.056-.284-.111-.568-.168-.851-.11-.549-.267-1.091-.409-1.632q-.057-.219-.112-.439l.053-.389c.055,0,.11.01.166.01a1.971,1.971,0,0,0,1.39-.575,2.035,2.035,0,0,0,.575-1.391q.126-2.529.253-5.059a1.714,1.714,0,0,0,.986-.477,1.756,1.756,0,0,0,.5-1.206c.079-1.832,0-3.662-.078-5.492s-.246-3.68-.391-5.516c.343-1.432.688-2.864,1.041-4.293.153-.616.282-1.238.423-1.857q.474-2.072.946-4.144l1.505-6.6c.116-.507.205-1.022.308-1.533q.41-2.042.818-4.084.64-3.2,1.281-6.4c.036-.175.054-.356.082-.534q.116-.761.233-1.525.173-1.125.346-2.248.995-3.9,1.99-7.805.581-2.282,1.163-4.566c.372-1.458.7-2.926,1.03-4.394a20.815,20.815,0,0,0,2.211-.116,2.815,2.815,0,0,0,.734-.125,2.547,2.547,0,0,0,1.443-1.11,2.312,2.312,0,0,0,.243-1.861A3.09,3.09,0,0,0,260.708,532.9Zm-53.9,31.283a.641.641,0,0,0,.291.38.633.633,0,0,0,.187.072c-.164.537-.339,1.07-.5,1.607q-.136.451-.269.9-.57,1.906-1.138,3.813c-.527,1.768-1.066,3.532-1.6,5.3q-.184.6-.369,1.206.3-1.48.6-2.959c.139-.682.29-1.363.41-2.049q.159-.9.317-1.794l.148-.839c.013-.074.027-.149.04-.223a3.947,3.947,0,0,0,.037-.61.573.573,0,0,0-.483-.562q.284-1.6.566-3.193c.057-.322.108-.642.158-.966.114-.736.246-1.474.331-2.214l2.2-.176c-.092.152-.183.3-.263.464-.137.271-.246.557-.362.837-.075.173-.152.344-.228.516A.686.686,0,0,0,206.8,564.185Zm-76.514,85.393c.006-.052.014-.1.02-.157-.01.081-.022.162-.032.242-.031-.149-.063-.3-.094-.447q.039-.789.08-1.579a1.391,1.391,0,0,0,.31-.176Q130.43,648.519,130.289,649.578ZM252.882,539.43l0,.041c-.175.734-.353,1.469-.54,2.2l-.557,2.182q.134-1.246.268-2.493c.137-.327.274-.654.41-.982-.014.036-.029.071-.044.107C252.57,540.133,252.728,539.783,252.882,539.43Zm-7.35,18.29c.013-.012.023-.027.036-.04a1.489,1.489,0,0,0,.157-.129l-.4,2.68a2.444,2.444,0,0,0-.371-.343q.068-.916.133-1.833A2.769,2.769,0,0,0,245.532,557.72Zm5.236-19.987.015.024c-.065.808-.179,1.613-.283,2.414q-.1.776-.2,1.552c-.147,1.129-.29,2.26-.439,3.389q-.547,3.249-1.1,6.5.313-2.759.612-5.52c.122-1.115.223-2.232.33-3.349.064-.663.126-1.326.179-1.99.065-.81.081-1.617.116-2.428a1.983,1.983,0,0,0-.137-.86l.813-.02A.691.691,0,0,0,250.769,537.734Zm-49.378,24.645a.673.673,0,0,0-.043.065c-.107.2-.218.406-.328.608l.128-.654Zm1.465-.018a.951.951,0,0,0-.181-.08l.3-.023-.046.147C202.9,562.389,202.88,562.375,202.855,562.361Zm50.469-24.778a.459.459,0,0,0-.094.013c-.126.038-.25.07-.375.115a.833.833,0,0,0-.4.3.878.878,0,0,0-.1.163c.018-.238.035-.477.046-.716a.294.294,0,0,0,.071.036.3.3,0,0,0,.229-.029.255.255,0,0,0,.074-.069l.588-.014ZM113.149,645.575c-.321-.376-.638-.755-.944-1.142.112-.04.223-.087.333-.137.089.151.177.3.267.452.242.407.484.814.738,1.213C113.41,645.833,113.279,645.7,113.149,645.575Zm-9.539-18.2c-.077-.647-.129-1.3-.154-1.944.11.423.228.842.357,1.257,0,.112.006.225.011.337-.036.1-.069.194-.1.292a2.419,2.419,0,0,0-.074.292C103.638,627.529,103.623,627.452,103.611,627.374Zm21.907,19.99c-.061-.359-.127-.715-.19-1.071a34.79,34.79,0,0,0-1-4.071c-.007-.069-.018-.137-.025-.2q.654,2.435,1.267,4.881ZM106.1,617.272c.282-.2.57-.394.866-.573a6.478,6.478,0,0,0-.152.708A2.809,2.809,0,0,0,106.1,617.272Zm18.953,35.238a2.639,2.639,0,0,0,.182-.282,3.111,3.111,0,0,0,.122.309c.025.061.051.121.077.181l.012.03a.87.87,0,0,0,.048.112l-.536-.216C124.992,652.6,125.021,652.553,125.055,652.51Zm31.1-88.917a5.425,5.425,0,0,0,.275-.553c.116-.273.228-.542.333-.814.11.061.221.119.333.174a3.554,3.554,0,0,0,.382,1.007l-.791.122Zm28.862,69.8q-.134.739-.268,1.479c-.068.373-.125.747-.186,1.121-.078.484-.152.97-.209,1.458-.136-.55-.271-1.1-.409-1.649v-.026a19.261,19.261,0,0,0-.053-2A1.18,1.18,0,0,0,185.012,633.4Zm41.442-11.957a45.019,45.019,0,0,0-4.544-6.368c-.759-.885-1.575-1.724-2.407-2.541-.12-.119-.249-.229-.375-.342.107-.036.214-.066.324-.092.12,0,.239,0,.36,0a5.014,5.014,0,0,1,.568.159,6.133,6.133,0,0,1,.658.39,10.557,10.557,0,0,1,1.336,1.43c.762,1,1.477,2.033,2.162,3.087.465.713.928,1.424,1.361,2.156a41.534,41.534,0,0,1,2.384,4.707c.274.671.518,1.351.745,2.036C228.181,624.518,227.354,622.955,226.454,621.438Z" transform="translate(-110.306 -98.42)" fill="#fff"/>
    </g>
    <g id="Group_2869" data-name="Group 2869" transform="translate(-657.684 3.418)" opacity="0.25">
      <g id="Group_2869-2" data-name="Group 2869" transform="translate(1006.898 292.582)">
        <path id="Path_6951" data-name="Path 6951" d="M1128.7,430.977s8.339,6.931,6.847,15.459-3.411,10.234-10.393,13.629c-10.15,4.936-23.958,13.739-31.576,22.18-9.8,10.861-22.265,6.2-38.879,20.79-14.323,12.576-20.368,13.932-25.013,15.868s-10.422,11.776-18.5,23.882c-2.722,4.079-5.2,10.018-3.959,10.513s5.413-6.929,6.542-8.248" transform="translate(-1006.898 -346.603)" fill="none" stroke="#fff" stroke-linecap="round" stroke-linejoin="round" stroke-width="4.947"/>
        <path id="Path_6952" data-name="Path 6952" d="M1050.146,590.713a36.752,36.752,0,0,1,1.041-8.624c1.041-3.42,2.23-7.434,2.081-11.449s-2.651-6.542.013-8.177,17.829-7.434,37.01-16.653,24.533-12.936,36.725-18.437,15.463-8.624,20.667-6.393,9.372,10.084,10.562,11.125" transform="translate(-1023.78 -381.451)" fill="none" stroke="#fff" stroke-linecap="round" stroke-linejoin="round" stroke-width="2.84"/>
        <path id="Path_6953" data-name="Path 6953" d="M1247.193,499.007c-4.015,1.487-11.145,6.176-17.114,16.836-3.023,5.4-4.743,10.82-3.553,12.9s6.112,3.345,8.624,11.616c.82,2.7-1.189,10.389-6.1,15a94.806,94.806,0,0,0-8.921,9.813" transform="translate(-1090.132 -373.158)" fill="none" stroke="#fff" stroke-linecap="round" stroke-linejoin="round" stroke-width="2.92"/>
        <path id="Path_6954" data-name="Path 6954" d="M1220.132,561.946a44.65,44.65,0,0,0,20.073,11.488c15.4,3.957,30.86.2,32.859-2.676s-.346-13.106,1.147-28.67c1.295-13.506.428-21.617,3.412-24.389,2.4-2.225,10.2-16.249,6.181-22.94-4.563-7.593-9.254-12.32-12.079-11.428" transform="translate(-1090.132 -366.996)" fill="none" stroke="#fff" stroke-linecap="round" stroke-linejoin="round" stroke-width="3.347"/>
        <path id="Path_6955" data-name="Path 6955" d="M1292.285,486.016s.587,10.575-3.218,12.726c-3.737,2.112-13.086-4.285-13.086-4.285" transform="translate(-1111.932 -368.087)" fill="none" stroke="#fff" stroke-linecap="round" stroke-linejoin="round" stroke-width="1.164"/>
        <path id="Path_6956" data-name="Path 6956" d="M1298.729,414.685a12.653,12.653,0,0,1-2.684-13.976,373.377,373.377,0,0,1,22.006-43.119c8.624-14.125,13.233-43.119,16.653-45.349s8.177,1.636,13.233,2.081,8.475,4.163,11.6,2.974" transform="translate(-1119.358 -299.987)" fill="none" stroke="#fff" stroke-linecap="round" stroke-linejoin="round" stroke-width="2.535"/>
        <path id="Path_6957" data-name="Path 6957" d="M1349.165,295.694c-2.3-1-9.554.369-13.569-2.158s-14.572.743-20.667.966-6.839,6.17-10.7,11.821-17.991,24.533-20.221,32.562-3.717,19.627-10.408,26.466-11,9.07-13.084,15.761-3.568,7.88-4.906,7.732-5.933-16.926-9.353-21.833" transform="translate(-1100.327 -292.582)" fill="none" stroke="#fff" stroke-linecap="round" stroke-linejoin="round" stroke-width="2.909"/>
        <path id="Path_6958" data-name="Path 6958" d="M1175.362,577.032s-16.02-3.838-20.764-2.779-21.374-9.388-23.932-4.7-4.051,4.588-11.513,3.467-24.091-4.519-28.995,1.23,1.28,11.932-3.2,14.278-8.1,18.027,1.066,20.952,14.284,6.976,16.629,13.8,11.513,16.642,23.238,16.21,16.629,4.044,24.3,11.719,20.68,14.284,31.34,10.02,27.928,0,37.523,5.117,13.98,7.675,23.193-.853,14.756-8.527,26.056-8.315,12.365-3.624,16.2-8.1,10.447,1.705,13-2.985-7.248-6.315-29.208-26.4-47.33-32.02-47.33-32.02" transform="translate(-1036.344 -400.22)" fill="none" stroke="#fff" stroke-linecap="round" stroke-linejoin="round" stroke-width="4.296"/>
        <path id="Path_6959" data-name="Path 6959" d="M1219.312,728.048c2.132,7.888,11.513,48.183,11.513,56.284s4.051,15.777,3.2,21.746.427,18.335,9.594,37.949,15.827,28.193,14.071,35.39c-.44,1.8-1.9,6.378-13.095,10.321-10.885,3.835-17.872,3.747-17.872,8.65" transform="translate(-1089.812 -462.562)" fill="none" stroke="#fff" stroke-linecap="round" stroke-linejoin="round" stroke-width="3.687"/>
        <path id="Path_6960" data-name="Path 6960" d="M1240.071,899.34c11.958,0,19.385-6.023,29.244-2.612,6.061,2.1,14.071.853,12.366-6.609s-5.444-21.371-7.576-40.558-3.5-31.127-7.931-38.8-4.221-18.335-2.729-29.208.426-57.35.426-57.35" transform="translate(-1097.915 -461.06)" fill="none" stroke="#fff" stroke-linecap="round" stroke-linejoin="round" stroke-width="5.952"/>
        <path id="Path_6961" data-name="Path 6961" d="M1172.207,717.9c-1.145,1.908-6.36,18.318-11.449,29.386s-3.943,12.848-11.576,23.915-9.668,19.63-12.594,37.1-.636,36.68-3.435,38.079-8.575-1.361-10.314,5.516c-1.765,6.983,7.977,9.582,3.32,20.168-2.958,6.723-5.948,7.491-8.237,15.76s-1.8,10.14.214,9.568" transform="translate(-1049.643 -458.599)" fill="none" stroke="#fff" stroke-linecap="round" stroke-linejoin="round" stroke-width="4.847"/>
        <path id="Path_6962" data-name="Path 6962" d="M1188.587,782.059c-2.926,3.689-14.382,11.7-19.725,27.094s-12.721,34.092-16.792,47.322-2.989,21.563-8.968,35.81-21.956,29.226-21.956,29.226" transform="translate(-1051.494 -483.644)" fill="none" stroke="#fff" stroke-linecap="round" stroke-linejoin="round" stroke-width="3.192"/>
        <path id="Path_6963" data-name="Path 6963" d="M1147.843,917.371s4.621,3.612,12.126,1.7" transform="translate(-1061.915 -536.462)" fill="none" stroke="#fff" stroke-linecap="round" stroke-linejoin="round" stroke-width="3.002"/>
        <path id="Path_6964" data-name="Path 6964" d="M1276.223,951.143s6.834-3.943,13.195-.763" transform="translate(-1112.027 -548.863)" fill="none" stroke="#fff" stroke-linecap="round" stroke-linejoin="round" stroke-width="1.628"/>
        <path id="Path_6965" data-name="Path 6965" d="M1292.984,484.639s-.152,5.331.229,14.034c.36,8.211,2.8,18.52,1.018,19.41s-1.779-5.339-4.834-11.351c-2.708-5.328-14.206-12.022-14.206-12.022" transform="translate(-1111.623 -367.549)" fill="none" stroke="#fff" stroke-linecap="round" stroke-linejoin="round" stroke-width="2.561"/>
        <path id="Path_6966" data-name="Path 6966" d="M1176.011,400.531c2.162,3.689,8.651,10.813,8.651,10.813s-3.944-.509-2.036,2.035,5.805,5.312,8.141,5.6c2.595.316,1.527-1.781,1.527-1.781" transform="translate(-1072.91 -334.719)" fill="none" stroke="#fff" stroke-linecap="round" stroke-linejoin="round" stroke-width="3.146"/>
        <path id="Path_6967" data-name="Path 6967" d="M1227.887,396.962s4.071-5.978,2.162-11.067c0,0,2.066-1.419,1.734-3.336-.589-3.406-2.39-7.954-4.405-7.985-2.1-.032-1.018,2.036-2.544-.763s-5.6-11.321-15.647-15.01" transform="translate(-1085.86 -318.429)" fill="none" stroke="#fff" stroke-linecap="round" stroke-linejoin="round" stroke-width="2.466"/>
        <path id="Path_6968" data-name="Path 6968" d="M1189.2,355.239c0,.019-.013.034-.032.03a15.961,15.961,0,0,0-13.2,4.331c-5.594,5.472-7.351,16.407-7.5,17.361a.03.03,0,0,1-.054.011l-6.527-8.41a.03.03,0,0,1,.026-.049,5.552,5.552,0,0,0,5.145-2.437c1.625-2.481-.255-5.247-.849-6.014-.021-.028.015-.061.044-.04a4.2,4.2,0,0,0,5.513-.421c2.608-2.283.852-6.422.285-7.579a.03.03,0,0,1,.049-.034c.739.923,3.368,3.774,6.623,2.27,3.379-1.561,3.7-3.9,3.726-4.459a.028.028,0,0,1,.054-.012c.383.766,2.823,5.228,6.643,2.846a.03.03,0,0,1,.046.024Z" transform="translate(-1067.396 -314.905)" fill="none" stroke="#fff" stroke-linecap="round" stroke-linejoin="round" stroke-width="3.28"/>
        <path id="Path_6969" data-name="Path 6969" d="M1210.648,427.992s8.206,1.71,12.212-.453" transform="translate(-1086.43 -345.261)" fill="none" stroke="#fff" stroke-linecap="round" stroke-linejoin="round" stroke-width="1.612"/>
        <path id="Path_6970" data-name="Path 6970" d="M1197.525,620.7s-19.6-2.67-49.682,16.5" transform="translate(-1061.915 -420.609)" fill="none" stroke="#fff" stroke-linecap="round" stroke-linejoin="round" stroke-width="3.316"/>
        <path id="Path_6971" data-name="Path 6971" d="M1248.867,631.192s-.441,23.911-6.542,44.553" transform="translate(-1098.795 -424.755)" fill="none" stroke="#fff" stroke-linecap="round" stroke-linejoin="round" stroke-width="2.589"/>
        <path id="Path_6972" data-name="Path 6972" d="M1296.621,631.192s28.622,17.522,35.5,42.1" transform="translate(-1119.989 -424.755)" fill="none" stroke="#fff" stroke-linecap="round" stroke-linejoin="round" stroke-width="3.473"/>
        <path id="Path_6973" data-name="Path 6973" d="M1308.164,622.616s40.313,11.938,56.506,35.529" transform="translate(-1124.495 -421.407)" fill="none" stroke="#fff" stroke-linecap="round" stroke-linejoin="round" stroke-width="2.356"/>
        <path id="Path_6974" data-name="Path 6974" d="M1186.578,598.2s-28.475-13.222-59.6,0" transform="translate(-1053.77 -409.584)" fill="none" stroke="#fff" stroke-linecap="round" stroke-linejoin="round" stroke-width="1.463"/>
        <path id="Path_6975" data-name="Path 6975" d="M1278.213,955.693s4.761-2.545,11.982-.886" transform="translate(-1112.803 -550.856)" fill="none" stroke="#fff" stroke-linecap="round" stroke-linejoin="round" stroke-width="1.463"/>
        <path id="Path_6976" data-name="Path 6976" d="M1145.839,923.494a12.881,12.881,0,0,0,11.721,2.534" transform="translate(-1061.133 -538.852)" fill="none" stroke="#fff" stroke-linecap="round" stroke-linejoin="round" stroke-width="2.282"/>
        <path id="Path_6977" data-name="Path 6977" d="M1326.426,721.037c6.245-.194,9.472-9.069,25.337-10.951" transform="translate(-1131.623 -455.55)" fill="none" stroke="#fff" stroke-linecap="round" stroke-linejoin="round" stroke-width="2.892"/>
        <path id="Path_6978" data-name="Path 6978" d="M1126.971,654.509c-.162,4.571,1.528,13.714,20.045,14.79" transform="translate(-1053.764 -433.856)" fill="none" stroke="#fff" stroke-linecap="round" stroke-linejoin="round" stroke-width="2.786"/>
        <path id="Path_6979" data-name="Path 6979" d="M1096.287,592.327c.269,7.523-5.109,8.33-6.185,13.439" transform="translate(-1039.376 -409.584)" fill="none" stroke="#fff" stroke-linecap="round" stroke-linejoin="round" stroke-width="1.995"/>
        <path id="Path_6980" data-name="Path 6980" d="M1422.431,694.1c-2.958.269-8.068-1.786-12.1,3.678" transform="translate(-1164.374 -449.248)" fill="none" stroke="#fff" stroke-linecap="round" stroke-linejoin="round" stroke-width="1.83"/>
        <path id="Path_6981" data-name="Path 6981" d="M1025.647,607.938c-.66.824,0,5.361,0,5.361s-8.991,16.084-7.259,16.991,10.063-14.345,14.682-18.431" transform="translate(-1011.297 -415.678)" fill="none" stroke="#fff" stroke-linecap="round" stroke-linejoin="round" stroke-width="1.945"/>
        <path id="Path_6982" data-name="Path 6982" d="M1044.663,618.49c-.66,2.887-.742,8.826,1.9,10.228" transform="translate(-1021.488 -419.797)" fill="none" stroke="#fff" stroke-linecap="round" stroke-linejoin="round" stroke-width="1.061"/>
        <path id="Path_6983" data-name="Path 6983" d="M1021,614.37s-1.66,5.811-1.66,8.286a32.476,32.476,0,0,0,.59,5.4" transform="translate(-1011.756 -418.189)" fill="none" stroke="#fff" stroke-linecap="round" stroke-linejoin="round" stroke-width="1.463"/>
        <path id="Path_6984" data-name="Path 6984" d="M1027.6,630.223s2.833,9.509,1.843,9.756-4.185-6.341-4.185-6.341,2.371,7.166.886,7.578-2.9-4.791-2.9-4.791" transform="translate(-1013.281 -424.377)" fill="none" stroke="#fff" stroke-linecap="round" stroke-linejoin="round" stroke-width="1.463"/>
        <path id="Path_6985" data-name="Path 6985" d="M1403.291,299.15c-1.152.966-3.257,1.487-6.971,1.442s-6.657-1.171-8.877,0-3.669,1.4-2.491,3.121,9.166,5.8,9.528,7.886" transform="translate(-1154.304 -295.146)" fill="none" stroke="#fff" stroke-linecap="round" stroke-linejoin="round" stroke-width="1.206"/>
        <path id="Path_6986" data-name="Path 6986" d="M1390.485,301.345a99.418,99.418,0,0,0,6.845,8.255c2.536,2.491,4.347,5.075,3.668,5.842-1.042,1.178-3.94-.951-3.94-.951" transform="translate(-1156.628 -296.002)" fill="none" stroke="#fff" stroke-linecap="round" stroke-linejoin="round" stroke-width="1.463"/>
      </g>
    </g>
  </g>
</svg>
